<?xml version='1.0' encoding='UTF-8'?>
<svg class="svg-container" width="540" height="320" viewBox="0 0 540 320" xmlns="http://www.w3.org/2000/svg"
     xmlns:xlink="http://www.w3.org/1999/xlink" version="1.1" style="width: 540px; height: 320px;">
    <g>
        <g class="background group">
            <rect class="background rect" width="540" height="320" fill="#EAEAEA"></rect>
            <g class="background shapes">
                <rect class="background shapes shape_0_0" width="58.15384615384616" height="58.15384615384616" x="-20"
                      y="-100" fill="#E2E1E5" transform="rotate(-4)" rx="12"></rect>
                <rect class="background shapes shape_0_1" width="58.15384615384616" height="58.15384615384616" x="-14"
                      y="-16.92307692307692" fill="#E2E1E5" transform="rotate(-4)" rx="12"></rect>
                <rect class="background shapes shape_0_2" width="58.15384615384616" height="58.15384615384616" x="-22"
                      y="66.15384615384616" fill="#E2E1E5" transform="rotate(-4)" rx="12"></rect>
                <rect class="background shapes shape_0_3" width="58.15384615384616" height="58.15384615384616" x="-11"
                      y="149.23076923076923" fill="#E2E1E5" transform="rotate(-4)" rx="12"></rect>
                <rect class="background shapes shape_0_4" width="58.15384615384616" height="58.15384615384616" x="-23"
                      y="232.30769230769232" fill="#E2E1E5" transform="rotate(-4)" rx="12"></rect>
                <rect class="background shapes shape_0_5" width="58.15384615384616" height="58.15384615384616" x="-24"
                      y="315.3846153846154" fill="#E2E1E5" transform="rotate(-4)" rx="12"></rect>
                <rect class="background shapes shape_1_0" width="58.15384615384616" height="58.15384615384616"
                      x="63.07692307692308" y="-100" fill="#E2E1E5" transform="rotate(-4)" rx="12"></rect>
                <rect class="background shapes shape_1_1" width="58.15384615384616" height="58.15384615384616"
                      x="69.07692307692308" y="-16.92307692307692" fill="#E2E1E5" transform="rotate(-4)" rx="12"></rect>
                <rect class="background shapes shape_1_2" width="58.15384615384616" height="58.15384615384616"
                      x="61.07692307692308" y="66.15384615384616" fill="#E2E1E5" transform="rotate(-4)" rx="12"></rect>
                <rect class="background shapes shape_1_3" width="58.15384615384616" height="58.15384615384616"
                      x="72.07692307692308" y="149.23076923076923" fill="#E2E1E5" transform="rotate(-4)" rx="12"></rect>
                <rect class="background shapes shape_1_4" width="58.15384615384616" height="58.15384615384616"
                      x="60.07692307692308" y="232.30769230769232" fill="#E2E1E5" transform="rotate(-4)" rx="12"></rect>
                <rect class="background shapes shape_1_5" width="58.15384615384616" height="58.15384615384616"
                      x="59.07692307692308" y="315.3846153846154" fill="#E2E1E5" transform="rotate(-4)" rx="12"></rect>
                <rect class="background shapes shape_2_0" width="58.15384615384616" height="58.15384615384616"
                      x="146.15384615384616" y="-100" fill="#E2E1E5" transform="rotate(-4)" rx="12"></rect>
                <rect class="background shapes shape_2_1" width="58.15384615384616" height="58.15384615384616"
                      x="152.15384615384616" y="-16.92307692307692" fill="#E2E1E5" transform="rotate(-4)"
                      rx="12"></rect>
                <rect class="background shapes shape_2_2" width="58.15384615384616" height="58.15384615384616"
                      x="144.15384615384616" y="66.15384615384616" fill="#E2E1E5" transform="rotate(-4)" rx="12"></rect>
                <rect class="background shapes shape_2_3" width="58.15384615384616" height="58.15384615384616"
                      x="155.15384615384616" y="149.23076923076923" fill="#E2E1E5" transform="rotate(-4)"
                      rx="12"></rect>
                <rect class="background shapes shape_2_4" width="58.15384615384616" height="58.15384615384616"
                      x="143.15384615384616" y="232.30769230769232" fill="#E2E1E5" transform="rotate(-4)"
                      rx="12"></rect>
                <rect class="background shapes shape_2_5" width="58.15384615384616" height="58.15384615384616"
                      x="142.15384615384616" y="315.3846153846154" fill="#E2E1E5" transform="rotate(-4)" rx="12"></rect>
                <rect class="background shapes shape_3_0" width="58.15384615384616" height="58.15384615384616"
                      x="229.23076923076923" y="-100" fill="#E2E1E5" transform="rotate(-4)" rx="12"></rect>
                <rect class="background shapes shape_3_1" width="58.15384615384616" height="58.15384615384616"
                      x="235.23076923076923" y="-16.92307692307692" fill="#E2E1E5" transform="rotate(-4)"
                      rx="12"></rect>
                <rect class="background shapes shape_3_2" width="58.15384615384616" height="58.15384615384616"
                      x="227.23076923076923" y="66.15384615384616" fill="#E2E1E5" transform="rotate(-4)" rx="12"></rect>
                <rect class="background shapes shape_3_3" width="58.15384615384616" height="58.15384615384616"
                      x="238.23076923076923" y="149.23076923076923" fill="#E2E1E5" transform="rotate(-4)"
                      rx="12"></rect>
                <rect class="background shapes shape_3_4" width="58.15384615384616" height="58.15384615384616"
                      x="226.23076923076923" y="232.30769230769232" fill="#E2E1E5" transform="rotate(-4)"
                      rx="12"></rect>
                <rect class="background shapes shape_3_5" width="58.15384615384616" height="58.15384615384616"
                      x="225.23076923076923" y="315.3846153846154" fill="#E2E1E5" transform="rotate(-4)" rx="12"></rect>
                <rect class="background shapes shape_4_0" width="58.15384615384616" height="58.15384615384616"
                      x="312.3076923076923" y="-100" fill="#E2E1E5" transform="rotate(-4)" rx="12"></rect>
                <rect class="background shapes shape_4_1" width="58.15384615384616" height="58.15384615384616"
                      x="318.3076923076923" y="-16.92307692307692" fill="#E2E1E5" transform="rotate(-4)" rx="12"></rect>
                <rect class="background shapes shape_4_2" width="58.15384615384616" height="58.15384615384616"
                      x="310.3076923076923" y="66.15384615384616" fill="#E2E1E5" transform="rotate(-4)" rx="12"></rect>
                <rect class="background shapes shape_4_3" width="58.15384615384616" height="58.15384615384616"
                      x="321.3076923076923" y="149.23076923076923" fill="#E2E1E5" transform="rotate(-4)" rx="12"></rect>
                <rect class="background shapes shape_4_4" width="58.15384615384616" height="58.15384615384616"
                      x="309.3076923076923" y="232.30769230769232" fill="#E2E1E5" transform="rotate(-4)" rx="12"></rect>
                <rect class="background shapes shape_4_5" width="58.15384615384616" height="58.15384615384616"
                      x="308.3076923076923" y="315.3846153846154" fill="#E2E1E5" transform="rotate(-4)" rx="12"></rect>
                <rect class="background shapes shape_5_0" width="58.15384615384616" height="58.15384615384616"
                      x="395.3846153846154" y="-100" fill="#E2E1E5" transform="rotate(-4)" rx="12"></rect>
                <rect class="background shapes shape_5_1" width="58.15384615384616" height="58.15384615384616"
                      x="401.3846153846154" y="-16.92307692307692" fill="#E2E1E5" transform="rotate(-4)" rx="12"></rect>
                <rect class="background shapes shape_5_2" width="58.15384615384616" height="58.15384615384616"
                      x="393.3846153846154" y="66.15384615384616" fill="#E2E1E5" transform="rotate(-4)" rx="12"></rect>
                <rect class="background shapes shape_5_3" width="58.15384615384616" height="58.15384615384616"
                      x="404.3846153846154" y="149.23076923076923" fill="#E2E1E5" transform="rotate(-4)" rx="12"></rect>
                <rect class="background shapes shape_5_4" width="58.15384615384616" height="58.15384615384616"
                      x="392.3846153846154" y="232.30769230769232" fill="#E2E1E5" transform="rotate(-4)" rx="12"></rect>
                <rect class="background shapes shape_5_5" width="58.15384615384616" height="58.15384615384616"
                      x="391.3846153846154" y="315.3846153846154" fill="#E2E1E5" transform="rotate(-4)" rx="12"></rect>
                <rect class="background shapes shape_6_0" width="58.15384615384616" height="58.15384615384616"
                      x="478.46153846153845" y="-100" fill="#E2E1E5" transform="rotate(-4)" rx="12"></rect>
                <rect class="background shapes shape_6_1" width="58.15384615384616" height="58.15384615384616"
                      x="484.46153846153845" y="-16.92307692307692" fill="#E2E1E5" transform="rotate(-4)"
                      rx="12"></rect>
                <rect class="background shapes shape_6_2" width="58.15384615384616" height="58.15384615384616"
                      x="476.46153846153845" y="66.15384615384616" fill="#E2E1E5" transform="rotate(-4)" rx="12"></rect>
                <rect class="background shapes shape_6_3" width="58.15384615384616" height="58.15384615384616"
                      x="487.46153846153845" y="149.23076923076923" fill="#E2E1E5" transform="rotate(-4)"
                      rx="12"></rect>
                <rect class="background shapes shape_6_4" width="58.15384615384616" height="58.15384615384616"
                      x="475.46153846153845" y="232.30769230769232" fill="#E2E1E5" transform="rotate(-4)"
                      rx="12"></rect>
                <rect class="background shapes shape_6_5" width="58.15384615384616" height="58.15384615384616"
                      x="474.46153846153845" y="315.3846153846154" fill="#E2E1E5" transform="rotate(-4)" rx="12"></rect>
                <rect class="background shapes shape_7_0" width="58.15384615384616" height="58.15384615384616"
                      x="561.5384615384615" y="-100" fill="#E2E1E5" transform="rotate(-4)" rx="12"></rect>
                <rect class="background shapes shape_7_1" width="58.15384615384616" height="58.15384615384616"
                      x="567.5384615384615" y="-16.92307692307692" fill="#E2E1E5" transform="rotate(-4)" rx="12"></rect>
                <rect class="background shapes shape_7_2" width="58.15384615384616" height="58.15384615384616"
                      x="559.5384615384615" y="66.15384615384616" fill="#E2E1E5" transform="rotate(-4)" rx="12"></rect>
                <rect class="background shapes shape_7_3" width="58.15384615384616" height="58.15384615384616"
                      x="570.5384615384615" y="149.23076923076923" fill="#E2E1E5" transform="rotate(-4)" rx="12"></rect>
                <rect class="background shapes shape_7_4" width="58.15384615384616" height="58.15384615384616"
                      x="558.5384615384615" y="232.30769230769232" fill="#E2E1E5" transform="rotate(-4)" rx="12"></rect>
                <rect class="background shapes shape_7_5" width="58.15384615384616" height="58.15384615384616"
                      x="557.5384615384615" y="315.3846153846154" fill="#E2E1E5" transform="rotate(-4)" rx="12"></rect>
            </g>
        </g>
        <g class="group chart" transform="translate(270,
        166)">
            <g>
                <path d="M6.490628035480972e-15,-106A106,106,0,1,1,-6.490628035480972e-15,106A106,106,0,1,1,6.490628035480972e-15,-106M-1.3630318874510038e-14,-74.19999999999999A74.19999999999999,74.19999999999999,0,1,0,1.3630318874510038e-14,74.19999999999999A74.19999999999999,74.19999999999999,0,1,0,-1.3630318874510038e-14,-74.19999999999999Z"
                      class="chart money_donut1 background" fill="#B7B7B7" opacity="0.9" stroke-width="2"
                      transform="translate(-100, 0)"></path>
            </g>
            <g>
                <path d="M68.33370879543872,56.53056025071909A15.900000000000006,15.900000000000006,0,0,1,68.46902042168772,80.91967154218135A106,106,0,0,1,-85.0592004186745,-63.25292423387053A15.900000000000006,15.900000000000006,0,0,1,-60.70971917987286,-64.6492845830561L-60.70971917987286,-64.6492845830561A15.900000000000006,15.900000000000006,0,0,1,-59.54144029307213,-44.27704696370937A74.19999999999999,74.19999999999999,0,0,0,47.92831429518138,56.64377007952693A15.900000000000006,15.900000000000006,0,0,1,68.33370879543872,56.53056025071909Z"
                      class="chart money_donut1 data-item arc index-2" fill="#66C07B" opacity="0.9" stroke-width="2"
                      transform="translate(-100, 0)"></path>
                <path d="M88.51096132338252,5.568637679961281A15.900000000000006,15.900000000000006,0,0,1,102.9559906621958,25.220309014083302A106,106,0,0,1,76.46078969079258,73.4149006664205A15.900000000000006,15.900000000000006,0,0,1,52.12830102661202,71.74845107790773L52.12830102661202,71.74845107790773A15.900000000000006,15.900000000000006,0,0,1,53.5225527835548,51.39043046649432A74.19999999999999,74.19999999999999,0,0,0,72.06919346353705,17.654216309858306A15.900000000000006,15.900000000000006,0,0,1,88.51096132338252,5.568637679961283Z"
                      class="chart money_donut1 data-item arc index-1" fill="#6295D1" opacity="0.9" stroke-width="2"
                      transform="translate(-100, 0)"></path>
                <path d="M1.2434497875801753e-14,-88.685962812612A15.900000000000006,15.900000000000006,0,0,1,18.7058823529412,-104.33642683836707A106,106,0,0,1,105.01027417341881,14.451377720598558A15.900000000000006,15.900000000000006,0,0,1,84.3453628368443,27.405469671601722L84.3453628368443,27.405469671601722A15.900000000000006,15.900000000000006,0,0,1,73.50719192139314,10.115964404418989A74.19999999999999,74.19999999999999,0,0,0,13.094117647058834,-73.03549878685693A15.900000000000006,15.900000000000006,0,0,1,1.2434497875801753e-14,-88.685962812612Z"
                      class="chart money_donut1 data-item arc index-0" fill="#E93D41" opacity="0.9" stroke-width="2"
                      transform="translate(-100, 0)"></path>
            </g>
            <g>
                <text class="chart money_donut1 data-item legend label index-0" transform="translate(110,-60)"
                      font-size="18" fill="#ADADAD" font-weight="bold" style="text-anchor: start;">
                    INVESTORS
                </text>
                <text class="chart money_donut1 data-item legend label index-1" transform="translate(110,-20)"
                      font-size="18" fill="#ADADAD" font-weight="bold" style="text-anchor: start;">PORT FEES
                </text>
                <text class="chart money_donut1 data-item legend label index-2" transform="translate(110,20)"
                      font-size="18" fill="#ADADAD" font-weight="bold" style="text-anchor: start;">
                    BOUNTIES
                </text>
                <rect class="chart money_donut1 data-item legend symbol shape index-0" width="60" height="27" y="0"
                      fill="#E93D41" transform="translate(34, -78)" rx="15"></rect>
                <rect class="chart money_donut1 data-item legend symbol shape index-1" width="60" height="27" y="38"
                      fill="#6295D1" transform="translate(34, -78)" rx="15"></rect>
                <rect class="chart money_donut1 data-item legend symbol shape index-2" width="60" height="27" y="76"
                      fill="#66C07B" transform="translate(34, -78)" rx="15"></rect>
                <text font-size="18" fill="white" font-weight="bold" dy="0"
                      class="chart money_donut1 data-item legend symbol text index-0" transform="translate(65, -60)"
                      style="text-anchor: middle;">30%
                </text>
                <text font-size="18" fill="white" font-weight="bold" dy="38"
                      class="chart money_donut1 data-item legend symbol text index-1" transform="translate(65, -60)"
                      style="text-anchor: middle;">10%
                </text>
                <text font-size="18" fill="white" font-weight="bold" dy="76"
                      class="chart money_donut1 data-item legend symbol text index-2" transform="translate(65, -60)"
                      style="text-anchor: middle;">REST
                </text>
            </g>
        </g>
        <g>
            <text class="foreground annotation description" fill="#ADADAD" font-weight="bold" font-size="18"
                  transform="translate(310, 230)">$10,000 BONUS
            </text>
        </g>
    </g>
</svg>
