<svg width="950" height="600" viewBox="0 0 950 600" xmlns="http://www.w3.org/2000/svg" xmlns:xlink="http://www.w3.org/1999/xlink" version="1.1">
    <rect x="0" y="0" width="950" height="600" fill="#ffffff"/><text class="a" x="50" y="100" text-anchor="left" font-size="30px" font-weight="bold">History of Architecture </text><g transform="translate(50, 100)"><circle id="x-domain" cx="80" cy="80" r="50" fill="#FF6B4C"/><circle id="x-domain" cx="500" cy="80" r="50" fill="#694B60"/><circle id="x-domain" cx="80" cy="80" r="36" fill="#ffffff"/><circle id="x-domain" cx="500" cy="80" r="36" fill="#ffffff"/><rect x="76" y="130" width="8" height="70" fill="#FF6B4C"/><rect x="496" y="130" width="8" height="70" fill="#694B60"/><circle id="x-domain" cx="80" cy="200" r="10" fill="#FF6B4C"/><circle id="x-domain" cx="500" cy="200" r="10" fill="#694B60"/><circle id="x-domain" cx="290" cy="378" r="50" fill="#008968"/><circle id="x-domain" cx="710" cy="378" r="50" fill="#CB424E"/><circle id="x-domain" cx="290" cy="378" r="36" fill="#ffffff"/><circle id="x-domain" cx="710" cy="378" r="36" fill="#ffffff"/><rect x="286" y="258" width="8" height="70" fill="#008968"/><rect x="706" y="258" width="8" height="70" fill="#CB424E"/><circle id="x-domain" cx="290" cy="250" r="10" fill="#008968"/><circle id="x-domain" cx="710" cy="250" r="10" fill="#CB424E"/><path d="&#10;        M 45 210&#10;        H 115&#10;        Q 130 210 130 225&#10;        V 225&#10;        Q 130 240 115 240&#10;        H 45&#10;        Q 30 240 30 225&#10;        V 225&#10;        Q 30 210 45 210&#10;      " fill="#FF6B4C"/><path d="&#10;        M 255 210&#10;        H 325&#10;        Q 340 210 340 225&#10;        V 225&#10;        Q 340 240 325 240&#10;        H 255&#10;        Q 240 240 240 225&#10;        V 225&#10;        Q 240 210 255 210&#10;      " fill="#008968"/><path d="&#10;        M 465 210&#10;        H 535&#10;        Q 550 210 550 225&#10;        V 225&#10;        Q 550 240 535 240&#10;        H 465&#10;        Q 450 240 450 225&#10;        V 225&#10;        Q 450 210 465 210&#10;      " fill="#694B60"/><path d="&#10;        M 675 210&#10;        H 745&#10;        Q 760 210 760 225&#10;        V 225&#10;        Q 760 240 745 240&#10;        H 675&#10;        Q 660 240 660 225&#10;        V 225&#10;        Q 660 210 675 210&#10;      " fill="#CB424E"/><path d="&#10;      M 135 225&#10;      H 215&#10;      L 215 221&#10;      L 225 225&#10;      L 215 229&#10;      L 215 225&#10;      H 135&#10;      Z&#10;    " stroke="#ABABAB" stroke-width="10" fill="#ABABAB" class="e"/><path d="&#10;      M 345 225&#10;      H 425&#10;      L 425 221&#10;      L 435 225&#10;      L 425 229&#10;      L 425 225&#10;      H 345&#10;      Z&#10;    " stroke="#ABABAB" stroke-width="10" fill="#ABABAB" class="e"/><path d="&#10;      M 555 225&#10;      H 635&#10;      L 635 221&#10;      L 645 225&#10;      L 635 229&#10;      L 635 225&#10;      H 555&#10;      Z&#10;    " stroke="#ABABAB" stroke-width="10" fill="#ABABAB" class="e"/><text class="f" x="25" dx="50" y="280" text-anchor="middle" font-size="25px" font-weight="bold" fill="#FF6B4C">Pyramids</text><text class="f" x="445" dx="50" y="280" text-anchor="middle" font-size="25px" font-weight="bold" fill="#694B60">Renaissance</text><text class="f" x="240" dx="50" y="60" text-anchor="middle" font-size="25px" font-weight="bold" fill="#008968">Gothic Cathedrals</text><text class="f" x="660" dx="50" y="60" text-anchor="middle" font-size="25px" font-weight="bold" fill="#CB424E">Eiffel Tower</text><text class="g" x="0" y="305" font-size="18px" font-weight="bold"><tspan x="0" dy="25">Great Pyramid of Giza</tspan><tspan x="0" dy="25">an ancient engineering</tspan><tspan x="0" dy="25">marvel.</tspan></text><text class="g" x="420" y="305" font-size="18px" font-weight="bold"><tspan x="420" dy="25">Revival of classical</tspan><tspan x="420" dy="25">architecture and</tspan><tspan x="420" dy="25">humanism.</tspan></text><text class="g" x="210" y="85" font-size="18px" font-weight="bold"><tspan x="210" dy="25">Gothic architecture</tspan><tspan x="210" dy="25">with pointed arches</tspan><tspan x="210" dy="25">and flying buttresses.</tspan></text><text class="g" x="630" y="85" font-size="18px" font-weight="bold"><tspan x="630" dy="25">Iconic symbol of</tspan><tspan x="630" dy="25">modern architecture</tspan><tspan x="630" dy="25">and engineering.</tspan></text><text class="h" x="80" y="231" text-anchor="middle" font-size="20px" font-weight="bold" fill="#ffffff">2500 BCE</text><text class="h" x="290" y="231" text-anchor="middle" font-size="20px" font-weight="bold" fill="#ffffff">1066 CE</text><text class="h" x="500" y="231" text-anchor="middle" font-size="20px" font-weight="bold" fill="#ffffff">1450 CE</text><text class="h" x="710" y="231" text-anchor="middle" font-size="20px" font-weight="bold" fill="#ffffff">1889 CE</text></g><g class="i" transform="translate (106.33333333333333, 153.33333333333334)" width="80" height="80"><svg t="1694236807022" class="icon" viewBox="0 0 1024 1024" version="1.1" xmlns="http://www.w3.org/2000/svg" p-id="6290" xmlns:xlink="http://www.w3.org/1999/xlink" width="50" height="50"><path d="M574.131797 783.970321v231.932051c0 4.398711-3.598946 7.997657-7.997657 7.997657H455.566533c-4.398711 0-7.997657-3.598946-7.997657-7.997657v-232.931758c0-35.189691 28.891536-63.781314 64.181197-63.28146 34.789808 0.599824 62.381724 29.591331 62.381724 64.281167z" p-id="6291" fill="#2A2A2A"/><path d="M928.428 991.909402c0 17.694816-14.295812 32.090598-31.990628 32.090598H646.11071c-4.398711 0-7.997657-3.598946-7.997657-7.997657V784.470175c0-70.27941-56.483452-128.362394-126.762863-128.662306-70.479352-0.199941-127.662599 56.783364-127.662598 127.262716v232.931758c0 4.398711-3.598946 7.997657-7.997657 7.997657H127.062775c-17.694816 0-31.990628-14.295812-31.990628-31.990628l0.099971-417.977545c0-18.494582 7.997657-36.189398 21.993556-48.285854l331.302939-287.91565c36.089427-31.390803 89.773699-31.390803 125.863126 0l331.402909 287.91565c13.9959 12.096456 21.993557 29.691301 21.993557 48.185883l0.699795 417.977546z" p-id="6292" fill="#2A2A2A"/><path d="M1023.700088 475.960558v0.799766c0 26.592209-31.090891 41.087963-51.484917 24.092942L914.732012 452.767353l-178.947574-150.955774-162.552377-137.059846c-35.789515-30.191155-87.974226-30.191155-123.763741 0l-397.083667 334.901884C31.690716 517.148492 0 502.452797 0 475.360734v-0.399883c0-9.397247 4.098799-18.29464 11.29669-24.292883L428.874353 98.37118c47.686029-40.188226 117.365616-40.188226 165.051645 0L722.688275 206.939373c5.198477 4.398711 13.196134 0.699795 13.196134-6.098213V95.971883c0-17.694816 14.295812-31.990628 31.990628-31.990628h114.966318c17.694816 0 31.990628 14.295812 31.990628 31.990628v258.224349c0 9.397247 4.19877 18.394611 11.396661 24.492824 20.993849 17.694816 65.380845 55.183833 86.274724 72.778678 7.097921 5.998243 11.19672 14.895636 11.19672 24.492824z" p-id="6293" fill="#2A2A2A"/></svg></g><g class="i" transform="translate (526.3333333333334, 153.33333333333334)" width="80" height="80"><svg t="1694236888393" class="icon" viewBox="0 0 1024 1024" version="1.1" xmlns="http://www.w3.org/2000/svg" p-id="7506" xmlns:xlink="http://www.w3.org/1999/xlink" width="50" height="50"><path d="M911.5648 943.2064h-38.5024V65.399467c0-25.531733-20.6848-46.1824-46.1824-46.1824H180.053333c-25.4976 0-46.1824 20.650667-46.1824 46.1824v877.806933H95.368533a23.108267 23.108267 0 0 0-23.108266 23.108267v38.5024h862.4128V966.314667a23.108267 23.108267 0 0 0-23.108267-23.108267zM318.6688 165.512533c0-12.765867 10.3424-23.108267 23.108267-23.108266h77.0048c12.731733 0 23.074133 10.3424 23.074133 23.108266v77.0048a23.108267 23.108267 0 0 1-23.074133 23.074134H341.777067a23.108267 23.108267 0 0 1-23.108267-23.074134V165.512533z m0 184.797867c0-12.765867 10.3424-23.108267 23.108267-23.108267h77.0048c12.731733 0 23.074133 10.3424 23.074133 23.108267v77.0048a23.108267 23.108267 0 0 1-23.074133 23.074133H341.777067a23.108267 23.108267 0 0 1-23.108267-23.074133v-77.0048z m100.215467 284.8768h-77.141334a23.108267 23.108267 0 0 1-23.074133-23.074133v-77.0048c0-12.765867 10.3424-23.108267 23.108267-23.108267h77.0048c12.731733 0 23.074133 10.3424 23.074133 23.108267v77.0048a23.108267 23.108267 0 0 1-23.074133 23.074133h0.1024z m146.295466 308.0192h-123.221333v-161.6896c0-12.765867 10.3424-23.108267 23.108267-23.108267h77.0048c12.765867 0 23.108267 10.3424 23.108266 23.108267v161.6896z m123.221334-330.990933a23.108267 23.108267 0 0 1-23.108267 23.108266h-77.141333a23.108267 23.108267 0 0 1-23.074134-23.108266v-77.141334c0-12.731733 10.3424-23.074133 23.074134-23.074133h77.0048c12.765867 0 23.108267 10.3424 23.108266 23.108267l0.1024 77.1072z m0-184.900267a23.108267 23.108267 0 0 1-23.108267 23.074133h-77.141333a23.108267 23.108267 0 0 1-23.074134-23.074133v-77.0048c0-12.765867 10.3424-23.108267 23.074134-23.108267h77.0048c12.765867 0 23.108267 10.3424 23.108266 23.108267l0.1024 77.0048z m0-184.797867a23.108267 23.108267 0 0 1-23.108267 23.074134h-77.141333a23.108267 23.108267 0 0 1-23.074134-23.074134V165.512533c0-12.765867 10.3424-23.108267 23.074134-23.108266h77.0048c12.765867 0 23.108267 10.3424 23.108266 23.108266l0.1024 77.0048z" fill="#2A2A2A" p-id="7507"/></svg></g><g class="i" transform="translate (316.3333333333333, 451.3333333333333)" width="80" height="80"><svg t="1694329522902" class="icon" viewBox="0 0 1098 1024" version="1.1" xmlns="http://www.w3.org/2000/svg" p-id="6329" width="50" height="50"><path d="M1096.632106 992.308463V657.536243a18.400911 18.400911 0 0 0-3.69184-10.997799 16.865882 16.865882 0 0 0 0.699506-4.605085v-170.310437a17.254497 17.254497 0 0 0-17.196205-17.176774h-52.093814a17.254497 17.254497 0 0 0-17.196205 17.176774v77.956129a6.587021 6.587021 0 0 1-6.56759 6.56759h-54.580949a6.587021 6.587021 0 0 1-6.56759-6.56759v-77.956129a17.254497 17.254497 0 0 0-17.196205-17.176774h-51.297153a17.254497 17.254497 0 0 0-17.196205 17.176774v77.956129a6.587021 6.587021 0 0 1-6.56759 6.56759h-54.580949a6.587021 6.587021 0 0 1-6.56759-6.56759v-77.956129a17.254497 17.254497 0 0 0-17.196205-17.176774h-27.203036v-155.912258h26.076053a46.264592 46.264592 0 0 0 31.944137-79.782619l-213.738141-203.711878a54.891841 54.891841 0 0 0-75.527286 0l-213.738141 203.711878a46.264592 46.264592 0 0 0 31.924706 79.782619h25.978899v155.912258h-29.651309a17.254497 17.254497 0 0 0-17.196205 17.176774v77.956129a6.587021 6.587021 0 0 1-6.56759 6.56759h-54.600379a6.587021 6.587021 0 0 1-6.567591-6.56759v-77.956129a17.254497 17.254497 0 0 0-17.196204-17.176774H171.748311a17.254497 17.254497 0 0 0-17.196205 17.176774v77.956129a6.587021 6.587021 0 0 1-6.56759 6.56759H93.46186a6.587021 6.587021 0 0 1-6.567591-6.56759v-77.956129a17.254497 17.254497 0 0 0-17.196204-17.176774H18.090019a17.254497 17.254497 0 0 0-17.196205 17.176774v170.329867a17.001898 17.001898 0 0 0 1.437875 6.82019 18.303757 18.303757 0 0 0-2.312258 8.763264v346.236357a18.226034 18.226034 0 0 0 0.874383 5.343453v8.743833c0 3.380949 16.341252 6.140114 36.23833 6.140114h1024.796661c19.935939 0 36.23833-2.759165 36.23833-6.140114v-23.880379c0.019431-0.582922-0.621784-1.068691-1.535029-1.671044zM394.171992 530.226034h86.214194v-125.075673a67.716129 67.716129 0 0 1 135.432258 0v125.075673h84.27112v0.427476h-84.27112v-0.427476h-135.432258v0.427476h-86.214194zM994.270968 987.839393H858.83871v-117.070209a67.716129 67.716129 0 0 1 135.432258 0z m-891.870968 0v-117.070209a67.716129 67.716129 0 0 1 135.432258 0v117.070209z m378.025047 0v-126.29981a67.716129 67.716129 0 0 1 135.432259 0v126.29981z" fill="#2A2A2A" p-id="6330"/></svg></g><g class="i" transform="translate (736.3333333333334, 451.3333333333333)" width="80" height="80"><svg t="1694237094985" class="icon" viewBox="0 0 1024 1024" version="1.1" xmlns="http://www.w3.org/2000/svg" p-id="17744" xmlns:xlink="http://www.w3.org/1999/xlink" width="50" height="50"><path d="M928 469.333333h-74.666667V96a53.333333 53.333333 0 0 0-53.333333-53.333333H266.666667a53.333333 53.333333 0 0 0-53.333334 53.333333v117.333333H96a53.333333 53.333333 0 0 0-53.333333 53.333334v693.333333a21.333333 21.333333 0 0 0 21.333333 21.333333h896a21.333333 21.333333 0 0 0 21.333333-21.333333V522.666667a53.333333 53.333333 0 0 0-53.333333-53.333334zM170.666667 810.666667h-42.666667v-85.333334h42.666667z m0-128h-42.666667V597.333333h42.666667z m0-128h-42.666667V469.333333h42.666667z m0-128h-42.666667V341.333333h42.666667z m85.333333 384h-42.666667v-85.333334h42.666667z m0-128h-42.666667V597.333333h42.666667z m0-128h-42.666667V469.333333h42.666667z m0-128h-42.666667V341.333333h42.666667z m85.333333 384h-42.666666v-85.333334h42.666666z m0-128h-42.666666V597.333333h42.666666z m0-128h-42.666666V469.333333h42.666666z m0-128h-42.666666V341.333333h42.666666z m234.666667 341.333333H469.333333v-42.666667h106.666667a21.333333 21.333333 0 0 1 0 42.666667z m106.666667-213.333333h-42.666667V469.333333h42.666667z m0-128h-42.666667V341.333333h42.666667z m0-128h-42.666667V213.333333h42.666667z m213.333333 512h-42.666667v-85.333334h42.666667z m0-128h-42.666667V597.333333h42.666667z" fill="#2A2A2A" p-id="17745"/></svg></g></svg>