<svg width="1000" height="600" viewBox="0 0 1000 600" xmlns="http://www.w3.org/2000/svg" xmlns:xlink="http://www.w3.org/1999/xlink" version="1.1">
    <rect x="0" y="0" width="1000" height="600" fill="#D4D3DC"/><g transform="translate(50, 50)"><line class="connector" x1="50" y1="0" x2="50" y2="500" stroke="#2B2F3E" stroke-width="15" stroke-linecap="round"/><g class="unit-background" index="0"><path d="&#10;        M 193 42.9&#10;        H 777&#10;        Q 800 42.9 800 65.9&#10;        V 60.400000000000006&#10;        Q 800 83.4 777 83.4&#10;        H 193&#10;        Q 170 83.4 170 60.400000000000006&#10;        V 65.9&#10;        Q 170 42.9 193 42.9&#10;      " fill="#F0873C"/><path d="&#10;        M 215 24&#10;        H 665&#10;        Q 710 24 710 69&#10;        V 60&#10;        Q 710 105 665 105&#10;        H 215&#10;        Q 170 105 170 60&#10;        V 69&#10;        Q 170 24 215 24&#10;      " fill="#FFFFFF"/><path d="&#10;        M 193 44.25&#10;        H 242&#10;        Q 265 44.25 265 67.25&#10;        V 61.75&#10;        Q 265 84.75 242 84.75&#10;        H 193&#10;        Q 170 84.75 170 61.75&#10;        V 67.25&#10;        Q 170 44.25 193 44.25&#10;      " fill="#F0873C"/><path d="&#10;        M 630 30.75&#10;        H 664&#10;        Q 702 30.75 702 68.75&#10;        V 60.25&#10;        Q 702 98.25 664 98.25&#10;        H 630&#10;      " fill="#F0873C"/><circle cx="192.5" cy="60" r="45" fill="#F0873C" stroke="#D4D3DC" stroke-width="15" style="filter: drop-shadow(rgba(0, 0, 0, 0.4) -2px 2px 4px);"/><circle cx="192.5" cy="60" r="25" fill="#D4D3DC"/><line x1="50" y1="60" x2="155" y2="60" stroke="#F0873C" stroke-width="15" stroke-linecap="round"/><circle cx="50" cy="60" r="15" fill="#F0873C" stroke="#D4D3DC" stroke-width="5"/></g><g class="unit-background" index="1"><path d="&#10;        M 193 167.9&#10;        H 777&#10;        Q 800 167.9 800 190.9&#10;        V 185.4&#10;        Q 800 208.4 777 208.4&#10;        H 193&#10;        Q 170 208.4 170 185.4&#10;        V 190.9&#10;        Q 170 167.9 193 167.9&#10;      " fill="#CF01D3"/><path d="&#10;        M 215 149&#10;        H 665&#10;        Q 710 149 710 194&#10;        V 185&#10;        Q 710 230 665 230&#10;        H 215&#10;        Q 170 230 170 185&#10;        V 194&#10;        Q 170 149 215 149&#10;      " fill="#FFFFFF"/><path d="&#10;        M 193 169.25&#10;        H 242&#10;        Q 265 169.25 265 192.25&#10;        V 186.75&#10;        Q 265 209.75 242 209.75&#10;        H 193&#10;        Q 170 209.75 170 186.75&#10;        V 192.25&#10;        Q 170 169.25 193 169.25&#10;      " fill="#CF01D3"/><path d="&#10;        M 630 155.75&#10;        H 664&#10;        Q 702 155.75 702 193.75&#10;        V 185.25&#10;        Q 702 223.25 664 223.25&#10;        H 630&#10;      " fill="#CF01D3"/><circle cx="192.5" cy="185" r="45" fill="#CF01D3" stroke="#D4D3DC" stroke-width="15" style="filter: drop-shadow(rgba(0, 0, 0, 0.4) -2px 2px 4px);"/><circle cx="192.5" cy="185" r="25" fill="#D4D3DC"/><line x1="50" y1="185" x2="155" y2="185" stroke="#CF01D3" stroke-width="15" stroke-linecap="round"/><circle cx="50" cy="185" r="15" fill="#CF01D3" stroke="#D4D3DC" stroke-width="5"/></g><g class="unit-background" index="2"><path d="&#10;        M 193 292.9&#10;        H 777&#10;        Q 800 292.9 800 315.9&#10;        V 310.4&#10;        Q 800 333.4 777 333.4&#10;        H 193&#10;        Q 170 333.4 170 310.4&#10;        V 315.9&#10;        Q 170 292.9 193 292.9&#10;      " fill="#038B8A"/><path d="&#10;        M 215 274&#10;        H 665&#10;        Q 710 274 710 319&#10;        V 310&#10;        Q 710 355 665 355&#10;        H 215&#10;        Q 170 355 170 310&#10;        V 319&#10;        Q 170 274 215 274&#10;      " fill="#FFFFFF"/><path d="&#10;        M 193 294.25&#10;        H 242&#10;        Q 265 294.25 265 317.25&#10;        V 311.75&#10;        Q 265 334.75 242 334.75&#10;        H 193&#10;        Q 170 334.75 170 311.75&#10;        V 317.25&#10;        Q 170 294.25 193 294.25&#10;      " fill="#038B8A"/><path d="&#10;        M 630 280.75&#10;        H 664&#10;        Q 702 280.75 702 318.75&#10;        V 310.25&#10;        Q 702 348.25 664 348.25&#10;        H 630&#10;      " fill="#038B8A"/><circle cx="192.5" cy="310" r="45" fill="#038B8A" stroke="#D4D3DC" stroke-width="15" style="filter: drop-shadow(rgba(0, 0, 0, 0.4) -2px 2px 4px);"/><circle cx="192.5" cy="310" r="25" fill="#D4D3DC"/><line x1="50" y1="310" x2="155" y2="310" stroke="#038B8A" stroke-width="15" stroke-linecap="round"/><circle cx="50" cy="310" r="15" fill="#038B8A" stroke="#D4D3DC" stroke-width="5"/></g><g class="unit-background" index="3"><path d="&#10;        M 193 417.9&#10;        H 777&#10;        Q 800 417.9 800 440.9&#10;        V 435.4&#10;        Q 800 458.4 777 458.4&#10;        H 193&#10;        Q 170 458.4 170 435.4&#10;        V 440.9&#10;        Q 170 417.9 193 417.9&#10;      " fill="#0671D1"/><path d="&#10;        M 215 399&#10;        H 665&#10;        Q 710 399 710 444&#10;        V 435&#10;        Q 710 480 665 480&#10;        H 215&#10;        Q 170 480 170 435&#10;        V 444&#10;        Q 170 399 215 399&#10;      " fill="#FFFFFF"/><path d="&#10;        M 193 419.25&#10;        H 242&#10;        Q 265 419.25 265 442.25&#10;        V 436.75&#10;        Q 265 459.75 242 459.75&#10;        H 193&#10;        Q 170 459.75 170 436.75&#10;        V 442.25&#10;        Q 170 419.25 193 419.25&#10;      " fill="#0671D1"/><path d="&#10;        M 630 405.75&#10;        H 664&#10;        Q 702 405.75 702 443.75&#10;        V 435.25&#10;        Q 702 473.25 664 473.25&#10;        H 630&#10;      " fill="#0671D1"/><circle cx="192.5" cy="435" r="45" fill="#0671D1" stroke="#D4D3DC" stroke-width="15" style="filter: drop-shadow(rgba(0, 0, 0, 0.4) -2px 2px 4px);"/><circle cx="192.5" cy="435" r="25" fill="#D4D3DC"/><line x1="50" y1="435" x2="155" y2="435" stroke="#0671D1" stroke-width="15" stroke-linecap="round"/><circle cx="50" cy="435" r="15" fill="#0671D1" stroke="#D4D3DC" stroke-width="5"/></g><text class="unit-index" index="0" x="192.5" y="70" text-anchor="middle" font-size="30px" font-weight="bold" fill="#35313D">01</text><text class="unit-index" index="1" x="192.5" y="195" text-anchor="middle" font-size="30px" font-weight="bold" fill="#35313D">02</text><text class="unit-index" index="2" x="192.5" y="320" text-anchor="middle" font-size="30px" font-weight="bold" fill="#35313D">03</text><text class="unit-index" index="3" x="192.5" y="445" text-anchor="middle" font-size="30px" font-weight="bold" fill="#35313D">04</text><text class="unit-description" index="0" x="754" y="70" text-anchor="middle" font-size="22px" font-weight="bold" fill="#FFFFFF">25%</text><text class="unit-description" index="1" x="754" y="195" text-anchor="middle" font-size="22px" font-weight="bold" fill="#FFFFFF">40%</text><text class="unit-description" index="2" x="754" y="320" text-anchor="middle" font-size="22px" font-weight="bold" fill="#FFFFFF">70%</text><text class="unit-description" index="3" x="754" y="445" text-anchor="middle" font-size="22px" font-weight="bold" fill="#FFFFFF">95%</text><text class="unit-title" index="0" x="270" y="70" text-anchor="left" font-size="18px" font-weight="bold">Exploring programming from Scratch</text><text class="unit-title" index="1" x="270" y="195" text-anchor="left" font-size="18px" font-weight="bold">Building Essential Skills and Projects</text><text class="unit-title" index="2" x="270" y="320" text-anchor="left" font-size="18px" font-weight="bold">In-depth algorithms and data Structures</text><text class="unit-title" index="3" x="270" y="445" text-anchor="left" font-size="18px" font-weight="bold">Application development</text></g><g class="unit-icon" index="0" width="60" height="60" transform="translate (690, 90)"><svg t="1694589245985" class="icon" viewBox="0 0 1024 1024" version="1.1" xmlns="http://www.w3.org/2000/svg" p-id="109839" width="50" height="50"><path d="M608.853333 256c-23.466667 40.533333-9.386667 93.013333 31.146667 116.48 40.533333 23.466667 93.013333 9.386667 116.48-31.146667 23.466667-40.533333 9.386667-93.013333-31.146667-116.48-40.533333-23.466667-93.013333-9.386667-116.48 31.146667z" p-id="109840" fill="#ffffff"/><path d="M675.84 444.16l-110.933333-64a214.357333 214.357333 0 0 1-93.013334-258.986667 42.282667 42.282667 0 0 0-18.346666-51.626666c-22.613333-12.8-52.053333-2.986667-61.013334 21.333333-40.533333 107.093333-14.933333 228.266667 62.293334 310.186667l-198.4 343.466666c-11.946667 20.48-4.693333 46.506667 15.786666 58.453334s46.506667 4.693333 58.453334-15.786667l42.666666-73.813333 73.813334 42.666666-106.666667 184.746667c-11.946667 20.48-4.693333 46.506667 15.786667 58.453333s46.506667 4.693333 58.453333-15.786666l247.04-427.52a214.613333 214.613333 0 0 1 28.16 201.386666 42.624 42.624 0 0 0 79.786667 29.866667c41.386667-111.786667 17.493333-249.173333-93.866667-343.04zM544 162.133333c30.72 17.493333 69.546667 7.253333 87.466667-23.466666 17.493333-30.72 7.253333-69.546667-23.466667-87.466667a64.042667 64.042667 0 0 0-64 110.933333z" p-id="109841" fill="#ffffff"/></svg></g><g class="unit-icon" index="1" width="60" height="60" transform="translate (690, 215)"><svg t="1694591264830" class="icon" viewBox="0 0 1024 1024" version="1.1" xmlns="http://www.w3.org/2000/svg" p-id="15513" width="53" height="53"><path d="M536.4864 481.3184m-174.4 0a174.4 174.4 0 1 0 348.8 0 174.4 174.4 0 1 0-348.8 0Z" fill="#ffffff" p-id="15514"/><path d="M412.1984 319.0912m-92.5312 0a92.5312 92.5312 0 1 0 185.0624 0 92.5312 92.5312 0 1 0-185.0624 0Z" fill="#ffffff" p-id="15515"/><path d="M597.8496 792.2048H428.7104a19.2 19.2 0 0 1-19.2-19.2v-3.9552c0-56.9344-22.3232-111.4368-62.8736-153.4464A231.4112 231.4112 0 0 1 513.28 223.2832c127.68 0 231.552 103.8848 231.552 231.5648a230.2848 230.2848 0 0 1-65.664 161.536c-40.064 41.1136-62.1184 94.528-62.1184 150.336v6.2336a19.2 19.2 0 0 1-19.2 19.2512z m-150.3872-38.4h131.52c3.1744-61.184 28.6976-119.04 72.6784-164.2112a192.128 192.128 0 0 0 54.7712-134.7456c0-106.5088-86.6432-193.1648-193.152-193.1648-106.8416 0-191.68 83.6608-193.1392 190.4512a192 192 0 0 0 54.1312 136.8064c43.8656 45.4528 69.5296 103.5392 73.1904 164.864z" p-id="15516" fill="#ffffff"/><path d="M539.072 882.7264h-51.584a78.08 78.08 0 0 1-77.9776-77.9904v-31.7312a19.2 19.2 0 0 1 19.2-19.2h169.1392a19.2 19.2 0 0 1 19.2 19.2v31.7312a78.08 78.08 0 0 1-77.9776 77.9904z m-91.1616-90.5216v12.5312a39.68 39.68 0 0 0 39.5776 39.5904h51.584a39.68 39.68 0 0 0 39.5776-39.5904v-12.5312zM508.5824 190.2848a19.2 19.2 0 0 1-19.2-19.2v-59.008a19.2 19.2 0 0 1 38.4 0v59.008a19.2 19.2 0 0 1-19.2 19.2zM350.08 237.8112a19.2 19.2 0 0 1-16.64-9.6128l-29.504-51.0976a19.2 19.2 0 0 1 33.28-19.2l29.504 51.0976a19.2 19.2 0 0 1-16.64 28.8128zM236.5184 358.208a19.2 19.2 0 0 1-9.5872-2.56l-51.0976-29.44a19.2 19.2 0 0 1 19.2-33.28l51.0976 29.504a19.2 19.2 0 0 1-9.6128 35.84zM790.0416 341.9392a19.2 19.2 0 0 1-9.6128-35.84l51.0976-29.44a19.2 19.2 0 1 1 19.2 33.28l-51.0976 29.504a19.072 19.072 0 0 1-9.5872 2.496zM669.6064 228.4032a19.2 19.2 0 0 1-16.64-28.8L682.496 148.48a19.2 19.2 0 0 1 33.28 19.2l-29.44 51.0976a19.2 19.2 0 0 1-16.7296 9.6256z" p-id="15517" fill="#ffffff"/></svg></g><g class="unit-icon" index="2" width="60" height="60" transform="translate (690, 340)"><svg t="1694590226511" class="icon" viewBox="0 0 1024 1024" version="1.1" xmlns="http://www.w3.org/2000/svg" p-id="9537" width="45" height="45"><path d="M942.4 289.088c0 0-127.36 128.384-140.352 141.504-12.992 13.056-56.96 11.712-56.96 11.712S628.8 429.12 611.968 412.416C595.328 395.648 583.808 273.92 583.808 273.92S580.544 240.064 597.312 223.232c16.704-16.768 141.056-141.184 141.056-141.184S754.304 64.128 731.2 64C656.64 63.744 505.152 65.472 431.808 139.008L416.576 154.048c-84.736 85.376-92.224 213.184-27.52 307.072L104.64 712.96c-34.176 34.176-71.104 135.168 0 206.4 71.104 71.232 171.776 34.176 205.824-0.064 0 0 203.264-228.928 252.608-283.2 93.568 67.136 222.336 60.48 308.096-25.6l15.104-15.104C957.376 524.032 959.68 373.76 960 297.728 960.192 273.472 942.4 289.088 942.4 289.088zM229.312 878.976c-46.656 0-84.352-37.632-84.352-84.288 0-46.528 37.76-84.288 84.352-84.288 46.592 0 84.224 37.824 84.224 84.288C313.536 841.344 275.904 878.976 229.312 878.976z" fill="#FFFFFF" p-id="9538"/></svg></g><g class="unit-icon" index="3" width="60" height="60" transform="translate (690, 465)"><svg t="1694590301008" class="icon" viewBox="0 0 1024 1024" version="1.1" xmlns="http://www.w3.org/2000/svg" p-id="12318" width="45" height="45"><path d="M470.016 976.896q-44.032 0-59.392-20.48t-15.36-65.536q0-20.48-0.512-64.512t-1.024-93.696-1.536-96.768-1.024-74.752q0-39.936-7.68-62.464t-35.328-21.504q-20.48 0-48.64-1.024t-49.664 0q-35.84 0-45.568-19.456t13.824-50.176q24.576-30.72 57.344-72.704t67.584-86.016 68.096-87.04 58.88-75.776q23.552-29.696 45.568-30.72t46.592 26.624q24.576 29.696 56.832 69.632t67.072 82.432 68.608 83.968 60.416 73.216q29.696 35.84 23.04 58.88t-43.52 23.04q-11.264 0-25.088 0.512t-29.184 1.024-30.208 1.024-27.136 0.512q-25.6 1.024-32.256 16.384t-5.632 41.984q0 29.696 0.512 77.824t1.024 100.352 1.536 101.376 1.024 79.872q0 13.312-2.048 27.648t-9.728 26.112-21.504 19.968-36.352 8.192q-27.648 0-52.736 0.512t-56.832 1.536z" p-id="12319" fill="#ffffff"/></svg></g></svg>