<svg width="800" height="500" viewBox="0 0 800 500" xmlns="http://www.w3.org/2000/svg" xmlns:xlink="http://www.w3.org/1999/xlink" version="1.1">
    <rect class="background" x="0" y="0" width="800" height="500" fill="#ffffff"/><g transform="translate(50, 50)"><text class="category label" x="350" y="25" text-anchor="middle" alignment-baseline="middle" font-size="24px" font-weight="bold" fill="#000000">Apple</text><text class="category label" x="350" y="95" text-anchor="middle" alignment-baseline="middle" font-size="24px" font-weight="bold" fill="#000000">Banana</text><text class="category label" x="350" y="165" text-anchor="middle" alignment-baseline="middle" font-size="24px" font-weight="bold" fill="#000000">Orange</text><text class="category label" x="350" y="235" text-anchor="middle" alignment-baseline="middle" font-size="24px" font-weight="bold" fill="#000000">Grape</text><text class="category label" x="350" y="305" text-anchor="middle" alignment-baseline="middle" font-size="24px" font-weight="bold" fill="#000000">Watermelon</text><text class="category label" x="350" y="375" text-anchor="middle" alignment-baseline="middle" font-size="24px" font-weight="bold" fill="#000000">Pineapple</text><path d="&#10;        M 30 0&#10;        H 270&#10;        V 50&#10;        H 30&#10;        Q 0 50 0 20&#10;        V 30&#10;        Q 0 0 30 0&#10;      " class="category background" fill="#F2F2F2"/><path d="&#10;        M 30 70&#10;        H 270&#10;        V 120&#10;        H 30&#10;        Q 0 120 0 90&#10;        V 100&#10;        Q 0 70 30 70&#10;      " class="category background" fill="#F2F2F2"/><path d="&#10;        M 30 140&#10;        H 270&#10;        V 190&#10;        H 30&#10;        Q 0 190 0 160&#10;        V 170&#10;        Q 0 140 30 140&#10;      " class="category background" fill="#F2F2F2"/><path d="&#10;        M 30 210&#10;        H 270&#10;        V 260&#10;        H 30&#10;        Q 0 260 0 230&#10;        V 240&#10;        Q 0 210 30 210&#10;      " class="category background" fill="#F2F2F2"/><path d="&#10;        M 30 280&#10;        H 270&#10;        V 330&#10;        H 30&#10;        Q 0 330 0 300&#10;        V 310&#10;        Q 0 280 30 280&#10;      " class="category background" fill="#F2F2F2"/><path d="&#10;        M 30 350&#10;        H 270&#10;        V 400&#10;        H 30&#10;        Q 0 400 0 370&#10;        V 380&#10;        Q 0 350 30 350&#10;      " class="category background" fill="#F2F2F2"/><path d="&#10;        M 430 0&#10;        H 670&#10;        Q 700 0 700 30&#10;        V 20&#10;        Q 700 50 670 50&#10;        H 430&#10;      " class="category background" fill="#F2F2F2"/><path d="&#10;        M 430 70&#10;        H 670&#10;        Q 700 70 700 100&#10;        V 90&#10;        Q 700 120 670 120&#10;        H 430&#10;      " class="category background" fill="#F2F2F2"/><path d="&#10;        M 430 140&#10;        H 670&#10;        Q 700 140 700 170&#10;        V 160&#10;        Q 700 190 670 190&#10;        H 430&#10;      " class="category background" fill="#F2F2F2"/><path d="&#10;        M 430 210&#10;        H 670&#10;        Q 700 210 700 240&#10;        V 230&#10;        Q 700 260 670 260&#10;        H 430&#10;      " class="category background" fill="#F2F2F2"/><path d="&#10;        M 430 280&#10;        H 670&#10;        Q 700 280 700 310&#10;        V 300&#10;        Q 700 330 670 330&#10;        H 430&#10;      " class="category background" fill="#F2F2F2"/><path d="&#10;        M 430 350&#10;        H 670&#10;        Q 700 350 700 380&#10;        V 370&#10;        Q 700 400 670 400&#10;        H 430&#10;      " class="category background" fill="#F2F2F2"/><path id="bar-0-0" class="bar" d="&#10;      M 165 0&#10;      H 270&#10;      V 50&#10;      H 165&#10;      Q 135 50 135 20&#10;      V 30&#10;      Q 135 0 165 0&#10;    " fill="#F25F79"/><path id="bar-0-1" class="bar" d="&#10;      M 70.5 70&#10;      H 270&#10;      V 120&#10;      H 70.5&#10;      Q 40.5 120 40.5 90&#10;      V 100&#10;      Q 40.5 70 70.5 70&#10;    " fill="#FE914E"/><path id="bar-0-2" class="bar" d="&#10;      M 246 140&#10;      H 270&#10;      V 190&#10;      H 246&#10;      Q 216 190 216 160&#10;      V 170&#10;      Q 216 140 246 140&#10;    " fill="#D8A925"/><path id="bar-0-3" class="bar" d="&#10;      M 165 210&#10;      H 270&#10;      V 260&#10;      H 165&#10;      Q 135 260 135 230&#10;      V 240&#10;      Q 135 210 165 210&#10;    " fill="#67BD36"/><path id="bar-0-4" class="bar" d="&#10;      M 57 280&#10;      H 270&#10;      V 330&#10;      H 57&#10;      Q 27 330 27 300&#10;      V 310&#10;      Q 27 280 57 280&#10;    " fill="#03BFBE"/><path id="bar-0-5" class="bar" d="&#10;      M 138 350&#10;      H 270&#10;      V 400&#10;      H 138&#10;      Q 108 400 108 370&#10;      V 380&#10;      Q 108 350 138 350&#10;    " fill="#3B8EEC"/><path id="bar-1-0" class="bar" d="&#10;      M 430 0&#10;      H 535&#10;      Q 565 0 565 30&#10;      V 20&#10;      Q 565 50 535 50&#10;      H 430&#10;    " fill="#F25F79"/><path id="bar-1-1" class="bar" d="&#10;      M 430 70&#10;      H 575.5&#10;      Q 605.5 70 605.5 100&#10;      V 90&#10;      Q 605.5 120 575.5 120&#10;      H 430&#10;    " fill="#FE914E"/><path id="bar-1-2" class="bar" d="&#10;      M 430 140&#10;      H 454&#10;      Q 484 140 484 170&#10;      V 160&#10;      Q 484 190 454 190&#10;      H 430&#10;    " fill="#D8A925"/><path id="bar-1-3" class="bar" d="&#10;      M 430 210&#10;      H 535&#10;      Q 565 210 565 240&#10;      V 230&#10;      Q 565 260 535 260&#10;      H 430&#10;    " fill="#67BD36"/><path id="bar-1-4" class="bar" d="&#10;      M 430 280&#10;      H 602.5&#10;      Q 632.5 280 632.5 310&#10;      V 300&#10;      Q 632.5 330 602.5 330&#10;      H 430&#10;    " fill="#03BFBE"/><path id="bar-1-5" class="bar" d="&#10;      M 430 350&#10;      H 643&#10;      Q 673 350 673 380&#10;      V 370&#10;      Q 673 400 643 400&#10;      H 430&#10;    " fill="#3B8EEC"/><text id="bar-label-0-0" class="bar-label" x="202.5" y="28" text-anchor="middle" alignment-baseline="middle" font-size="20px" font-weight="bold">50%</text><text id="bar-label-0-1" class="bar-label" x="155.25" y="98" text-anchor="middle" alignment-baseline="middle" font-size="20px" font-weight="bold">85%</text><text id="bar-label-0-2" class="bar-label" x="243" y="168" text-anchor="middle" alignment-baseline="middle" font-size="20px" font-weight="bold">20%</text><text id="bar-label-0-3" class="bar-label" x="202.5" y="238" text-anchor="middle" alignment-baseline="middle" font-size="20px" font-weight="bold">50%</text><text id="bar-label-0-4" class="bar-label" x="148.5" y="308" text-anchor="middle" alignment-baseline="middle" font-size="20px" font-weight="bold">90%</text><text id="bar-label-0-5" class="bar-label" x="189" y="378" text-anchor="middle" alignment-baseline="middle" font-size="20px" font-weight="bold">60%</text><text id="bar-label-1-0" class="bar-label" x="497.5" y="28" text-anchor="middle" alignment-baseline="middle" font-size="20px" font-weight="bold">50%</text><text id="bar-label-1-1" class="bar-label" x="517.75" y="98" text-anchor="middle" alignment-baseline="middle" font-size="20px" font-weight="bold">65%</text><text id="bar-label-1-2" class="bar-label" x="457" y="168" text-anchor="middle" alignment-baseline="middle" font-size="20px" font-weight="bold">20%</text><text id="bar-label-1-3" class="bar-label" x="497.5" y="238" text-anchor="middle" alignment-baseline="middle" font-size="20px" font-weight="bold">50%</text><text id="bar-label-1-4" class="bar-label" x="531.25" y="308" text-anchor="middle" alignment-baseline="middle" font-size="20px" font-weight="bold">75%</text><text id="bar-label-1-5" class="bar-label" x="551.5" y="378" text-anchor="middle" alignment-baseline="middle" font-size="20px" font-weight="bold">90%</text></g></svg>