<svg width="700" height="500" viewBox="0 0 700 500" xmlns="http://www.w3.org/2000/svg" xmlns:xlink="http://www.w3.org/1999/xlink" version="1.1">
    <rect x="0" y="0" width="700" height="500" fill="#ffffff"/><g class="symbol-group" transform="translate(50, 50)" width="100" height="100"><svg t="1694100988879" class="icon" viewBox="0 0 1024 1024" version="1.1" xmlns="http://www.w3.org/2000/svg" p-id="10467" xmlns:xlink="http://www.w3.org/1999/xlink" width="80" height="80"><path d="M430.376057 244.405701l153.865673 0c7.042474 0 12.919123-2.326595 17.819027-7.225487 4.897881-4.775536 7.285144-10.653196 7.285144-17.63298 0-7.470179-2.387262-13.592531-7.285144-18.369078-4.899904-4.775536-10.776553-7.225487-17.819027-7.225487L430.376057 193.952669c-7.10213 0-12.97979 2.448941-17.878683 7.225487-4.837214 4.775536-7.286155 10.898899-7.286155 18.369078 0 6.979784 2.448941 12.857444 7.286155 17.63298C417.396267 242.079107 423.273927 244.405701 430.376057 244.405701z" fill="#4472C4" p-id="10468"/><path d="M304.001817 633.816602c-10.286158 0-18.919129 3.551065-25.960592 10.409515-6.979784 6.978773-10.531861 15.552088-10.531861 25.714889 0 9.552082 3.551065 17.878683 10.531861 24.859479 7.041463 6.856427 15.674434 10.407493 25.960592 10.407493 9.673417 0 18.061696-3.551065 25.103159-10.407493 6.979784-6.980796 10.531861-15.307396 10.531861-24.859479 0-10.162801-3.551065-18.735104-10.531861-25.714889C322.063513 637.367667 313.675234 633.816602 304.001817 633.816602z" fill="#4472C4" p-id="10469"/><path d="M278.041225 294.122636l456.026739 0 0 150.620978-456.026739 0 0-150.620978Z" fill="#4472C4" p-id="10470"/><path d="M745.457258 669.941005c0-10.162801-3.551065-18.735104-10.531861-25.714889-7.040452-6.85845-15.674434-10.409515-25.961603-10.409515-10.223468 0-18.85745 3.551065-25.897902 10.409515-7.042474 6.978773-10.531861 15.552088-10.531861 25.714889 0 9.552082 3.489387 17.878683 10.531861 24.859479 7.040452 6.856427 15.674434 10.407493 25.897902 10.407493 10.287169 0 18.921151-3.551065 25.961603-10.407493C741.906193 687.819688 745.457258 679.493088 745.457258 669.941005z" fill="#4472C4" p-id="10471"/><path d="M506.4823 16.514678c-277.055885 0-501.579868 224.58465-501.579868 501.580879S229.426415 1019.677448 506.4823 1019.677448c277.057908 0 501.581891-224.585662 501.581891-501.581891S783.540207 16.514678 506.4823 16.514678zM715.455206 894.281975l-21.859476-48.861524L319.369881 845.420451l-21.858464 48.861524L192.994629 894.281975l106.965727-153.07093c-21.06271-5.878671-38.390331-17.63298-51.922195-35.266971-13.470185-17.635002-20.205278-37.962626-20.205278-60.860525l0-350.960913c0-13.837223 3.673411-27.062716 10.898899-39.675469 7.347833-12.490407 16.225496-24.001035 26.756346-34.41055s21.36807-19.347845 32.389314-26.94037c11.081912-7.470179 20.695673-12.97979 28.777581-16.776559 8.081909-3.673411 17.02125-7.714871 26.695679-12.001023 9.795763-4.286152 21.36807-7.959563 34.899933-11.265936 13.470185-3.184027 29.144619-5.87766 46.900956-7.959563 17.878683-2.204249 38.696702-3.184027 62.453044-3.184027 26.941382 0 50.696713 1.22447 71.268018 3.551065 20.512659 2.448941 38.45201 5.632968 53.881752 9.673417 15.368064 3.918103 28.899927 8.572304 40.472234 13.592531 11.570284 5.020227 22.28617 10.286158 32.022276 15.674434 9.672406 5.26593 19.959575 11.388282 30.736127 18.369078 10.836209 6.979784 20.572316 14.817001 29.142597 23.633997 8.695661 8.816996 15.79678 18.85745 21.492438 30.001041 5.693636 11.265936 8.509614 23.8797 8.509614 37.716923l0 350.960913c0 22.897899-6.856427 43.225523-20.632983 60.860525-13.776556 17.63298-31.164844 29.387289-52.226543 35.266971l107.700814 153.07093L715.455206 894.280964z" fill="#4472C4" p-id="10472"/><path d="M365.53575 745.251494 342.085778 795.703516 670.145758 795.703516 647.430872 745.251494Z" fill="#4472C4" p-id="10473"/></svg></g><g class="symbol-group" transform="translate(50, 160)" width="100" height="100"><svg t="1694100579137" class="icon" viewBox="0 0 1052 1024" version="1.1" xmlns="http://www.w3.org/2000/svg" p-id="4337" xmlns:xlink="http://www.w3.org/1999/xlink" width="80" height="80"><path d="M575.715556 8.248889A507.164444 507.164444 0 1 0 1028.551111 460.8 507.164444 507.164444 0 0 0 575.715556 8.248889z m236.657777 811.235555H451.697778a129.137778 129.137778 0 0 1 128.568889-122.88 132.266667 132.266667 0 0 1 111.786666 62.862223 98.417778 98.417778 0 0 1 38.4-11.093334 79.644444 79.644444 0 0 1 79.075556 68.266667h2.844444z m-166.684444-262.257777a1759.857778 1759.857778 0 0 1-259.413333 131.128889H210.488889a49.493333 49.493333 0 0 1-35.555556-15.075556L85.333333 581.688889l62.862223-16.213333 112.071111 46.364444c28.444444-16.497778 71.964444-34.986667 116.337777-64.853333l-129.706666-213.902223a89.884444 89.884444 0 0 1-2.844445-46.364444c11.093333-21.902222 30.151111-28.444444 56.888889-16.213333l259.413334 136.533333c5.688889 0 5.688889 5.404444 11.093333 5.404444 106.382222-68.266667 213.048889-112.071111 270.506667-106.666666a63.146667 63.146667 0 0 1 51.768888 32.995555c22.471111 43.52-15.928889 76.231111-248.035555 218.453334z" fill="#EE8640" p-id="4338"/></svg></g><g class="symbol-group" transform="translate(50, 270)" width="100" height="100"><svg t="1694100881523" class="icon" viewBox="0 0 1024 1024" version="1.1" xmlns="http://www.w3.org/2000/svg" p-id="5615" xmlns:xlink="http://www.w3.org/1999/xlink" width="90" height="90"><path d="M675.4 440l-0.8-2.5-0.5-1.5-0.1-0.3c-6.7-19.9-13-38.6-18.1-57.8-4.1-21.4-23-36.8-44.8-36.5-45.7-2.1-106.1-4.5-167.7-4.9h-0.8c-18.4 0.7-36.6 3.6-54.3 8.5-8.2 1.7-15.4 6.7-19.8 13.8-9.8 24.5-18.5 49.3-27.7 75.6l-0.1 0.2-0.2 0.5c-3.1 8.9-6.4 18.4-9.9 28.1 58.5 12.4 118.2 18.7 178 18.8 58.7 0 117.2-6.3 174.5-18.8-2.6-8-5.2-15.7-7.7-23.2zM389.4 560.9C367.5 550.6 345 541.6 322 534c-3.4-1.2-6.9-1.8-10.5-1.9-8.9-0.3-16.4 6.3-17.3 15.1-3.5 10.2-2.9 21.4 1.8 31.2 3.7 5.3 9.4 8.8 15.8 9.7 9.6 1.8 19.4 3 29.1 3.6 4 0.3 8.4 0.7 12.8 1.1h0.4c9.5 0.2 19.1-0.6 28.4-2.5 7.2-1.6 13.4-6.2 17.1-12.6 1.4-4-4.8-14.4-10.2-16.8zM722 551.4c-0.4-11.1-6.4-18.9-14.6-18.9-1.5 0-3.1 0.3-4.5 0.7-27.8 8.4-54.9 18.8-81.1 31.3-4.7 2-7.5 6.8-6.9 11.9 1.1 6.6 6.2 11.8 12.8 12.9 7.8 1.5 15.7 2.3 23.6 2.5 4.1 0.2 8.3 0.5 12.8 0.8 3.6-0.4 7.5-0.8 11.5-1.1 10.4-0.7 20.7-2.2 30.9-4.3 17.4-4 16.5-17.3 15.7-30.1 0-1.8-0.2-3.8-0.2-5.7z" fill="#71AD46" p-id="5616"/><path d="M512 64.5C264.9 64.5 64.5 264.9 64.5 512S264.9 959.5 512 959.5 959.5 759.1 959.5 512 759.1 64.5 512 64.5z m264 439.4l-22.4 6.2h-0.2l-8.2 2.3c0.4 3.3 1 6.8 1.4 9.6l0.1 0.7c1.4 7.6 2.2 15.2 2.4 22.9 0.4 51.2 0.7 101.4-0.3 152.1-0.3 9.2-3.4 18.1-9.1 25.4-1.8 3.1-24.4 4.5-46 4.5-13.5 0.7-27-0.3-40.2-3-12.6-8.2-12.3-19.7-12.1-31.9 0.6-6.9-0.1-13.8-2-20.4H378.9c-1.7 6.2-3.1 13.8-4.5 21.2l-0.1 0.5v0.2c-2.8 14.9-5.5 28.9-9.5 30.4-15.9 3.2-32.1 4.4-48.3 3.8-17.2 0-38-1-40.2-3.9-6.2-8.4-9.6-18.6-9.8-29.1-1.1-16.8-0.9-33.9-0.6-50.4v-0.8c0.1-4.5 0.1-8.8 0.2-13.1 0.3-27.7 0.7-55.9 1-83.2V545c0.1-11.2 0.3-22.4 0.4-33.6-7.4-1.9-17.3-4.5-28.7-7.6v-0.3c-0.9-4.4-0.9-8.9 0-13.3 2.6-9.3 7.3-18 13.6-25.4 6.5-7 15.8-10.8 25.4-10.4 2.3 0 4.7 0.2 7 0.5h0.3c3.3 0 9.2-6.7 11-11.5 1.6-4.1 3.1-8.2 4.6-12v-0.1c8.4-20.6 15.7-41.7 21.8-63.1 4.3-18.8 15.1-35.5 30.4-47.2 15.4-10.8 33.1-17.8 51.7-20.7 10.3-1.9 20.8-3.4 31-4.9h0.3l1.7-0.3c3.7-0.5 8-1.1 12.2-1.8 19.4-2.8 39-4.3 58.6-4.4 19.1 0 38.1 1.5 57 4.4 8.1 1.7 16.6 3.4 23.9 4.8l0.3 0.1c18.1 3.6 36.8 7.3 54.9 12.3 19 5 34.1 19.5 40 38.3 11.1 32.1 22.7 63.7 34.4 93.7 1.9 4.8 8.2 12.5 12.1 12.5h0.3c2.1-0.2 4.2-0.4 6.3-0.4 18.4 0 30.3 10 38.6 32.4 1.2 5.5 1.2 11.3-0.2 16.9z" fill="#71AD46" p-id="5617"/></svg></g><g class="symbol-group" transform="translate(50, 380)" width="100" height="100"><svg t="1694100773338" class="icon" viewBox="0 0 1024 1024" version="1.1" xmlns="http://www.w3.org/2000/svg" p-id="12439" xmlns:xlink="http://www.w3.org/1999/xlink" width="90" height="90"><path d="M512 64C264.618667 64 64 264.618667 64 512S264.618667 960 512 960 960 759.381333 960 512 759.466667 64 512 64zM285.013333 527.061333l1.92-3.029333 116.565334-182.357333a4.010667 4.010667 0 0 1 6.997333 0.554666c19.413333 43.605333 36.266667 97.92 28.373333 131.669334-3.285333 13.909333-12.501333 32.725333-22.912 50.133333-1.365333 2.56-2.816 4.992-4.394666 7.424a4.010667 4.010667 0 0 1-3.370667 1.706667H288.512a3.968 3.968 0 0 1-3.413333-6.101334H285.013333z m519.466667 62.72a4.053333 4.053333 0 0 1-2.432 3.754667c-9.088 3.84-39.936 18.090667-52.778667 35.925333-32.810667 45.610667-57.813333 110.890667-113.792 110.890667H401.92a150.058667 150.058667 0 0 1-149.802667-150.4v-2.688c0-2.133333 1.792-3.968 4.053334-3.968h130.090666c2.602667 0 4.48 2.346667 4.266667 4.949333a43.946667 43.946667 0 0 0 4.693333 25.002667c7.68 15.701333 23.722667 25.472 41.045334 25.472h64.426666V588.373333H436.906667a4.096 4.096 0 0 1-3.328-6.442666l2.389333-3.370667c5.973333-8.618667 14.592-21.888 23.168-37.034667 5.802667-10.24 11.52-21.12 16.042667-32.085333 0.896-1.962667 1.621333-4.010667 2.432-5.973333 1.237333-3.541333 2.517333-6.826667 3.413333-10.069334 0.853333-2.730667 1.706667-5.546667 2.389333-8.32 2.133333-9.344 3.029333-19.2 3.029334-29.397333 0-4.010667-0.128-8.234667-0.512-12.202667-0.170667-4.352-0.725333-8.746667-1.28-13.141333a127.658667 127.658667 0 0 0-1.792-11.648 243.669333 243.669333 0 0 0-3.626667-17.493333l-0.554667-2.218667c-1.109333-4.010667-2.090667-7.850667-3.328-11.818667a440.021333 440.021333 0 0 0-12.245333-36.266666 194.56 194.56 0 0 0-5.333333-13.269334c-2.688-6.656-5.418667-12.672-7.936-18.304a133.674667 133.674667 0 0 1-3.498667-7.338666 171.861333 171.861333 0 0 0-3.84-7.978667c-0.896-1.962667-2.005333-3.84-2.688-5.674667l-7.893333-14.506666c-1.066667-1.962667 0.725333-4.352 2.858666-3.754667l49.28 13.354667h0.426667l6.4 1.834666 7.168 2.048 2.645333 0.682667V268.8a25.429333 25.429333 0 0 1 34.986667-23.637333 25.770667 25.770667 0 0 1 15.616 23.68v43.434666l5.290667 1.450667c0.341333 0.170667 0.810667 0.384 1.152 0.64 1.28 0.853333 3.114667 2.304 5.461333 4.096 1.877333 1.408 3.84 3.2 6.186667 5.12 7.338667 5.973333 14.506667 12.288 21.418666 18.773333 7.978667 7.466667 16.938667 16.170667 25.514667 25.856 2.432 2.730667 4.778667 5.418667 7.168 8.405334 2.346667 2.986667 4.949333 5.845333 7.125333 8.661333 2.944 3.882667 5.973333 7.936 8.746667 12.117333 1.28 1.962667 2.773333 4.010667 3.925333 5.973334 3.584 5.333333 6.656 10.794667 9.6 16.256 1.28 2.517333 2.517333 5.290667 3.584 7.978666 3.328 7.338667 5.973333 14.762667 7.552 22.314667a24.32 24.32 0 0 1 1.066667 4.906667v0.426666c0.512 2.090667 0.725333 4.437333 0.896 6.826667a76.8 76.8 0 0 1-3.925333 32.64c-1.194667 3.114667-2.261333 6.357333-3.669334 9.472-2.816 6.357333-6.016 12.8-9.856 18.773333-1.28 2.218667-2.816 4.522667-4.266666 6.784-1.578667 2.346667-3.285333 4.565333-4.693334 6.698667-2.048 2.816-4.224 5.546667-6.485333 8.277333-1.962667 2.688-3.925333 5.376-6.186667 7.765334-2.986667 3.669333-5.973333 7.125333-9.130666 10.410666-1.792 2.133333-3.754667 4.394667-5.845334 6.314667-1.92 2.261333-4.010667 4.266667-5.802666 6.016a386.858667 386.858667 0 0 1-7.765334 7.552l-5.12 4.565333a3.84 3.84 0 0 1-2.688 1.109334h-39.253333v50.261333h49.365333c11.008 0 21.504-3.882667 30.037334-11.136 2.858667-2.517333 15.488-13.44 30.421333-29.952a3.541333 3.541333 0 0 1 1.877333-1.109333l136.277334-39.466667a4.096 4.096 0 0 1 3.541333 0.64 4.010667 4.010667 0 0 1 1.621333 3.2v28.885333z" fill="#9762D1" p-id="12440"/></svg></g><g class="isotype-0" transform="translate(150, 62.5)" width="100" height="100"><path transform="scale(0.05)" d="M614.4 947.2c0 19.2 0 44.8-6.4 57.6-6.4 12.8-19.2 12.8-32 19.2h-19.2c-6.4 0-12.8 0-12.8-6.4-25.6-12.8-19.2-57.6-19.2-96V620.8h-19.2V998.4c-6.4 19.2-38.4 32-64 19.2-12.8-6.4-19.2-12.8-25.6-25.6V320h-12.8v313.6c0 19.2-19.2 38.4-51.2 32-38.4-6.4-32-76.8-32-121.6V345.6c0-70.4-6.4-121.6 44.8-140.8 25.6-12.8 64-12.8 96-12.8h108.8c25.6 0 57.6 0 76.8 6.4 19.2 6.4 38.4 19.2 44.8 32 19.2 25.6 12.8 115.2 12.8 166.4v192c0 38.4 0 64-19.2 76.8h-25.6c-25.6-12.8-25.6-38.4-25.6-76.8V320h-19.2v627.2zM499.2 172.8c-44.8 0-83.2-38.4-83.2-89.6S454.4 0 499.2 0s89.6 38.4 89.6 89.6-38.4 83.2-89.6 83.2z" p-id="1376" fill="#4472C4"/></g><g class="isotype-0" transform="translate(172, 62.5)" width="100" height="100"><path transform="scale(0.05)" d="M614.4 947.2c0 19.2 0 44.8-6.4 57.6-6.4 12.8-19.2 12.8-32 19.2h-19.2c-6.4 0-12.8 0-12.8-6.4-25.6-12.8-19.2-57.6-19.2-96V620.8h-19.2V998.4c-6.4 19.2-38.4 32-64 19.2-12.8-6.4-19.2-12.8-25.6-25.6V320h-12.8v313.6c0 19.2-19.2 38.4-51.2 32-38.4-6.4-32-76.8-32-121.6V345.6c0-70.4-6.4-121.6 44.8-140.8 25.6-12.8 64-12.8 96-12.8h108.8c25.6 0 57.6 0 76.8 6.4 19.2 6.4 38.4 19.2 44.8 32 19.2 25.6 12.8 115.2 12.8 166.4v192c0 38.4 0 64-19.2 76.8h-25.6c-25.6-12.8-25.6-38.4-25.6-76.8V320h-19.2v627.2zM499.2 172.8c-44.8 0-83.2-38.4-83.2-89.6S454.4 0 499.2 0s89.6 38.4 89.6 89.6-38.4 83.2-89.6 83.2z" p-id="1376" fill="#4472C4"/></g><g class="isotype-0" transform="translate(194, 62.5)" width="100" height="100"><path transform="scale(0.05)" d="M614.4 947.2c0 19.2 0 44.8-6.4 57.6-6.4 12.8-19.2 12.8-32 19.2h-19.2c-6.4 0-12.8 0-12.8-6.4-25.6-12.8-19.2-57.6-19.2-96V620.8h-19.2V998.4c-6.4 19.2-38.4 32-64 19.2-12.8-6.4-19.2-12.8-25.6-25.6V320h-12.8v313.6c0 19.2-19.2 38.4-51.2 32-38.4-6.4-32-76.8-32-121.6V345.6c0-70.4-6.4-121.6 44.8-140.8 25.6-12.8 64-12.8 96-12.8h108.8c25.6 0 57.6 0 76.8 6.4 19.2 6.4 38.4 19.2 44.8 32 19.2 25.6 12.8 115.2 12.8 166.4v192c0 38.4 0 64-19.2 76.8h-25.6c-25.6-12.8-25.6-38.4-25.6-76.8V320h-19.2v627.2zM499.2 172.8c-44.8 0-83.2-38.4-83.2-89.6S454.4 0 499.2 0s89.6 38.4 89.6 89.6-38.4 83.2-89.6 83.2z" p-id="1376" fill="#4472C4"/></g><g class="isotype-0" transform="translate(216, 62.5)" width="100" height="100"><path transform="scale(0.05)" d="M614.4 947.2c0 19.2 0 44.8-6.4 57.6-6.4 12.8-19.2 12.8-32 19.2h-19.2c-6.4 0-12.8 0-12.8-6.4-25.6-12.8-19.2-57.6-19.2-96V620.8h-19.2V998.4c-6.4 19.2-38.4 32-64 19.2-12.8-6.4-19.2-12.8-25.6-25.6V320h-12.8v313.6c0 19.2-19.2 38.4-51.2 32-38.4-6.4-32-76.8-32-121.6V345.6c0-70.4-6.4-121.6 44.8-140.8 25.6-12.8 64-12.8 96-12.8h108.8c25.6 0 57.6 0 76.8 6.4 19.2 6.4 38.4 19.2 44.8 32 19.2 25.6 12.8 115.2 12.8 166.4v192c0 38.4 0 64-19.2 76.8h-25.6c-25.6-12.8-25.6-38.4-25.6-76.8V320h-19.2v627.2zM499.2 172.8c-44.8 0-83.2-38.4-83.2-89.6S454.4 0 499.2 0s89.6 38.4 89.6 89.6-38.4 83.2-89.6 83.2z" p-id="1376" fill="#4472C4"/></g><g class="isotype-0" transform="translate(238, 62.5)" width="100" height="100"><path transform="scale(0.05)" d="M614.4 947.2c0 19.2 0 44.8-6.4 57.6-6.4 12.8-19.2 12.8-32 19.2h-19.2c-6.4 0-12.8 0-12.8-6.4-25.6-12.8-19.2-57.6-19.2-96V620.8h-19.2V998.4c-6.4 19.2-38.4 32-64 19.2-12.8-6.4-19.2-12.8-25.6-25.6V320h-12.8v313.6c0 19.2-19.2 38.4-51.2 32-38.4-6.4-32-76.8-32-121.6V345.6c0-70.4-6.4-121.6 44.8-140.8 25.6-12.8 64-12.8 96-12.8h108.8c25.6 0 57.6 0 76.8 6.4 19.2 6.4 38.4 19.2 44.8 32 19.2 25.6 12.8 115.2 12.8 166.4v192c0 38.4 0 64-19.2 76.8h-25.6c-25.6-12.8-25.6-38.4-25.6-76.8V320h-19.2v627.2zM499.2 172.8c-44.8 0-83.2-38.4-83.2-89.6S454.4 0 499.2 0s89.6 38.4 89.6 89.6-38.4 83.2-89.6 83.2z" p-id="1376" fill="#4472C4"/></g><g class="isotype-0" transform="translate(260, 62.5)" width="100" height="100"><path transform="scale(0.05)" d="M614.4 947.2c0 19.2 0 44.8-6.4 57.6-6.4 12.8-19.2 12.8-32 19.2h-19.2c-6.4 0-12.8 0-12.8-6.4-25.6-12.8-19.2-57.6-19.2-96V620.8h-19.2V998.4c-6.4 19.2-38.4 32-64 19.2-12.8-6.4-19.2-12.8-25.6-25.6V320h-12.8v313.6c0 19.2-19.2 38.4-51.2 32-38.4-6.4-32-76.8-32-121.6V345.6c0-70.4-6.4-121.6 44.8-140.8 25.6-12.8 64-12.8 96-12.8h108.8c25.6 0 57.6 0 76.8 6.4 19.2 6.4 38.4 19.2 44.8 32 19.2 25.6 12.8 115.2 12.8 166.4v192c0 38.4 0 64-19.2 76.8h-25.6c-25.6-12.8-25.6-38.4-25.6-76.8V320h-19.2v627.2zM499.2 172.8c-44.8 0-83.2-38.4-83.2-89.6S454.4 0 499.2 0s89.6 38.4 89.6 89.6-38.4 83.2-89.6 83.2z" p-id="1376" fill="#4472C4"/></g><g class="isotype-0" transform="translate(282, 62.5)" width="100" height="100"><path transform="scale(0.05)" d="M614.4 947.2c0 19.2 0 44.8-6.4 57.6-6.4 12.8-19.2 12.8-32 19.2h-19.2c-6.4 0-12.8 0-12.8-6.4-25.6-12.8-19.2-57.6-19.2-96V620.8h-19.2V998.4c-6.4 19.2-38.4 32-64 19.2-12.8-6.4-19.2-12.8-25.6-25.6V320h-12.8v313.6c0 19.2-19.2 38.4-51.2 32-38.4-6.4-32-76.8-32-121.6V345.6c0-70.4-6.4-121.6 44.8-140.8 25.6-12.8 64-12.8 96-12.8h108.8c25.6 0 57.6 0 76.8 6.4 19.2 6.4 38.4 19.2 44.8 32 19.2 25.6 12.8 115.2 12.8 166.4v192c0 38.4 0 64-19.2 76.8h-25.6c-25.6-12.8-25.6-38.4-25.6-76.8V320h-19.2v627.2zM499.2 172.8c-44.8 0-83.2-38.4-83.2-89.6S454.4 0 499.2 0s89.6 38.4 89.6 89.6-38.4 83.2-89.6 83.2z" p-id="1376" fill="#4472C4"/></g><g class="isotype-0" transform="translate(304, 62.5)" width="100" height="100"><path transform="scale(0.05)" d="M614.4 947.2c0 19.2 0 44.8-6.4 57.6-6.4 12.8-19.2 12.8-32 19.2h-19.2c-6.4 0-12.8 0-12.8-6.4-25.6-12.8-19.2-57.6-19.2-96V620.8h-19.2V998.4c-6.4 19.2-38.4 32-64 19.2-12.8-6.4-19.2-12.8-25.6-25.6V320h-12.8v313.6c0 19.2-19.2 38.4-51.2 32-38.4-6.4-32-76.8-32-121.6V345.6c0-70.4-6.4-121.6 44.8-140.8 25.6-12.8 64-12.8 96-12.8h108.8c25.6 0 57.6 0 76.8 6.4 19.2 6.4 38.4 19.2 44.8 32 19.2 25.6 12.8 115.2 12.8 166.4v192c0 38.4 0 64-19.2 76.8h-25.6c-25.6-12.8-25.6-38.4-25.6-76.8V320h-19.2v627.2zM499.2 172.8c-44.8 0-83.2-38.4-83.2-89.6S454.4 0 499.2 0s89.6 38.4 89.6 89.6-38.4 83.2-89.6 83.2z" p-id="1376" fill="#4472C4"/></g><g class="isotype-0" transform="translate(326, 62.5)" width="100" height="100"><path transform="scale(0.05)" d="M614.4 947.2c0 19.2 0 44.8-6.4 57.6-6.4 12.8-19.2 12.8-32 19.2h-19.2c-6.4 0-12.8 0-12.8-6.4-25.6-12.8-19.2-57.6-19.2-96V620.8h-19.2V998.4c-6.4 19.2-38.4 32-64 19.2-12.8-6.4-19.2-12.8-25.6-25.6V320h-12.8v313.6c0 19.2-19.2 38.4-51.2 32-38.4-6.4-32-76.8-32-121.6V345.6c0-70.4-6.4-121.6 44.8-140.8 25.6-12.8 64-12.8 96-12.8h108.8c25.6 0 57.6 0 76.8 6.4 19.2 6.4 38.4 19.2 44.8 32 19.2 25.6 12.8 115.2 12.8 166.4v192c0 38.4 0 64-19.2 76.8h-25.6c-25.6-12.8-25.6-38.4-25.6-76.8V320h-19.2v627.2zM499.2 172.8c-44.8 0-83.2-38.4-83.2-89.6S454.4 0 499.2 0s89.6 38.4 89.6 89.6-38.4 83.2-89.6 83.2z" p-id="1376" fill="#9C9C9C"/></g><g class="isotype-0" transform="translate(348, 62.5)" width="100" height="100"><path transform="scale(0.05)" d="M614.4 947.2c0 19.2 0 44.8-6.4 57.6-6.4 12.8-19.2 12.8-32 19.2h-19.2c-6.4 0-12.8 0-12.8-6.4-25.6-12.8-19.2-57.6-19.2-96V620.8h-19.2V998.4c-6.4 19.2-38.4 32-64 19.2-12.8-6.4-19.2-12.8-25.6-25.6V320h-12.8v313.6c0 19.2-19.2 38.4-51.2 32-38.4-6.4-32-76.8-32-121.6V345.6c0-70.4-6.4-121.6 44.8-140.8 25.6-12.8 64-12.8 96-12.8h108.8c25.6 0 57.6 0 76.8 6.4 19.2 6.4 38.4 19.2 44.8 32 19.2 25.6 12.8 115.2 12.8 166.4v192c0 38.4 0 64-19.2 76.8h-25.6c-25.6-12.8-25.6-38.4-25.6-76.8V320h-19.2v627.2zM499.2 172.8c-44.8 0-83.2-38.4-83.2-89.6S454.4 0 499.2 0s89.6 38.4 89.6 89.6-38.4 83.2-89.6 83.2z" p-id="1376" fill="#9C9C9C"/></g><g class="isotype-0" transform="translate(370, 62.5)" width="100" height="100"><path transform="scale(0.05)" d="M614.4 947.2c0 19.2 0 44.8-6.4 57.6-6.4 12.8-19.2 12.8-32 19.2h-19.2c-6.4 0-12.8 0-12.8-6.4-25.6-12.8-19.2-57.6-19.2-96V620.8h-19.2V998.4c-6.4 19.2-38.4 32-64 19.2-12.8-6.4-19.2-12.8-25.6-25.6V320h-12.8v313.6c0 19.2-19.2 38.4-51.2 32-38.4-6.4-32-76.8-32-121.6V345.6c0-70.4-6.4-121.6 44.8-140.8 25.6-12.8 64-12.8 96-12.8h108.8c25.6 0 57.6 0 76.8 6.4 19.2 6.4 38.4 19.2 44.8 32 19.2 25.6 12.8 115.2 12.8 166.4v192c0 38.4 0 64-19.2 76.8h-25.6c-25.6-12.8-25.6-38.4-25.6-76.8V320h-19.2v627.2zM499.2 172.8c-44.8 0-83.2-38.4-83.2-89.6S454.4 0 499.2 0s89.6 38.4 89.6 89.6-38.4 83.2-89.6 83.2z" p-id="1376" fill="#9C9C9C"/></g><g class="isotype-0" transform="translate(392, 62.5)" width="100" height="100"><path transform="scale(0.05)" d="M614.4 947.2c0 19.2 0 44.8-6.4 57.6-6.4 12.8-19.2 12.8-32 19.2h-19.2c-6.4 0-12.8 0-12.8-6.4-25.6-12.8-19.2-57.6-19.2-96V620.8h-19.2V998.4c-6.4 19.2-38.4 32-64 19.2-12.8-6.4-19.2-12.8-25.6-25.6V320h-12.8v313.6c0 19.2-19.2 38.4-51.2 32-38.4-6.4-32-76.8-32-121.6V345.6c0-70.4-6.4-121.6 44.8-140.8 25.6-12.8 64-12.8 96-12.8h108.8c25.6 0 57.6 0 76.8 6.4 19.2 6.4 38.4 19.2 44.8 32 19.2 25.6 12.8 115.2 12.8 166.4v192c0 38.4 0 64-19.2 76.8h-25.6c-25.6-12.8-25.6-38.4-25.6-76.8V320h-19.2v627.2zM499.2 172.8c-44.8 0-83.2-38.4-83.2-89.6S454.4 0 499.2 0s89.6 38.4 89.6 89.6-38.4 83.2-89.6 83.2z" p-id="1376" fill="#9C9C9C"/></g><g class="isotype-0" transform="translate(414, 62.5)" width="100" height="100"><path transform="scale(0.05)" d="M614.4 947.2c0 19.2 0 44.8-6.4 57.6-6.4 12.8-19.2 12.8-32 19.2h-19.2c-6.4 0-12.8 0-12.8-6.4-25.6-12.8-19.2-57.6-19.2-96V620.8h-19.2V998.4c-6.4 19.2-38.4 32-64 19.2-12.8-6.4-19.2-12.8-25.6-25.6V320h-12.8v313.6c0 19.2-19.2 38.4-51.2 32-38.4-6.4-32-76.8-32-121.6V345.6c0-70.4-6.4-121.6 44.8-140.8 25.6-12.8 64-12.8 96-12.8h108.8c25.6 0 57.6 0 76.8 6.4 19.2 6.4 38.4 19.2 44.8 32 19.2 25.6 12.8 115.2 12.8 166.4v192c0 38.4 0 64-19.2 76.8h-25.6c-25.6-12.8-25.6-38.4-25.6-76.8V320h-19.2v627.2zM499.2 172.8c-44.8 0-83.2-38.4-83.2-89.6S454.4 0 499.2 0s89.6 38.4 89.6 89.6-38.4 83.2-89.6 83.2z" p-id="1376" fill="#9C9C9C"/></g><g class="isotype-0" transform="translate(436, 62.5)" width="100" height="100"><path transform="scale(0.05)" d="M614.4 947.2c0 19.2 0 44.8-6.4 57.6-6.4 12.8-19.2 12.8-32 19.2h-19.2c-6.4 0-12.8 0-12.8-6.4-25.6-12.8-19.2-57.6-19.2-96V620.8h-19.2V998.4c-6.4 19.2-38.4 32-64 19.2-12.8-6.4-19.2-12.8-25.6-25.6V320h-12.8v313.6c0 19.2-19.2 38.4-51.2 32-38.4-6.4-32-76.8-32-121.6V345.6c0-70.4-6.4-121.6 44.8-140.8 25.6-12.8 64-12.8 96-12.8h108.8c25.6 0 57.6 0 76.8 6.4 19.2 6.4 38.4 19.2 44.8 32 19.2 25.6 12.8 115.2 12.8 166.4v192c0 38.4 0 64-19.2 76.8h-25.6c-25.6-12.8-25.6-38.4-25.6-76.8V320h-19.2v627.2zM499.2 172.8c-44.8 0-83.2-38.4-83.2-89.6S454.4 0 499.2 0s89.6 38.4 89.6 89.6-38.4 83.2-89.6 83.2z" p-id="1376" fill="#9C9C9C"/></g><g class="isotype-0" transform="translate(458, 62.5)" width="100" height="100"><path transform="scale(0.05)" d="M614.4 947.2c0 19.2 0 44.8-6.4 57.6-6.4 12.8-19.2 12.8-32 19.2h-19.2c-6.4 0-12.8 0-12.8-6.4-25.6-12.8-19.2-57.6-19.2-96V620.8h-19.2V998.4c-6.4 19.2-38.4 32-64 19.2-12.8-6.4-19.2-12.8-25.6-25.6V320h-12.8v313.6c0 19.2-19.2 38.4-51.2 32-38.4-6.4-32-76.8-32-121.6V345.6c0-70.4-6.4-121.6 44.8-140.8 25.6-12.8 64-12.8 96-12.8h108.8c25.6 0 57.6 0 76.8 6.4 19.2 6.4 38.4 19.2 44.8 32 19.2 25.6 12.8 115.2 12.8 166.4v192c0 38.4 0 64-19.2 76.8h-25.6c-25.6-12.8-25.6-38.4-25.6-76.8V320h-19.2v627.2zM499.2 172.8c-44.8 0-83.2-38.4-83.2-89.6S454.4 0 499.2 0s89.6 38.4 89.6 89.6-38.4 83.2-89.6 83.2z" p-id="1376" fill="#9C9C9C"/></g><g class="isotype-0" transform="translate(480, 62.5)" width="100" height="100"><path transform="scale(0.05)" d="M614.4 947.2c0 19.2 0 44.8-6.4 57.6-6.4 12.8-19.2 12.8-32 19.2h-19.2c-6.4 0-12.8 0-12.8-6.4-25.6-12.8-19.2-57.6-19.2-96V620.8h-19.2V998.4c-6.4 19.2-38.4 32-64 19.2-12.8-6.4-19.2-12.8-25.6-25.6V320h-12.8v313.6c0 19.2-19.2 38.4-51.2 32-38.4-6.4-32-76.8-32-121.6V345.6c0-70.4-6.4-121.6 44.8-140.8 25.6-12.8 64-12.8 96-12.8h108.8c25.6 0 57.6 0 76.8 6.4 19.2 6.4 38.4 19.2 44.8 32 19.2 25.6 12.8 115.2 12.8 166.4v192c0 38.4 0 64-19.2 76.8h-25.6c-25.6-12.8-25.6-38.4-25.6-76.8V320h-19.2v627.2zM499.2 172.8c-44.8 0-83.2-38.4-83.2-89.6S454.4 0 499.2 0s89.6 38.4 89.6 89.6-38.4 83.2-89.6 83.2z" p-id="1376" fill="#9C9C9C"/></g><g class="isotype-0" transform="translate(502, 62.5)" width="100" height="100"><path transform="scale(0.05)" d="M614.4 947.2c0 19.2 0 44.8-6.4 57.6-6.4 12.8-19.2 12.8-32 19.2h-19.2c-6.4 0-12.8 0-12.8-6.4-25.6-12.8-19.2-57.6-19.2-96V620.8h-19.2V998.4c-6.4 19.2-38.4 32-64 19.2-12.8-6.4-19.2-12.8-25.6-25.6V320h-12.8v313.6c0 19.2-19.2 38.4-51.2 32-38.4-6.4-32-76.8-32-121.6V345.6c0-70.4-6.4-121.6 44.8-140.8 25.6-12.8 64-12.8 96-12.8h108.8c25.6 0 57.6 0 76.8 6.4 19.2 6.4 38.4 19.2 44.8 32 19.2 25.6 12.8 115.2 12.8 166.4v192c0 38.4 0 64-19.2 76.8h-25.6c-25.6-12.8-25.6-38.4-25.6-76.8V320h-19.2v627.2zM499.2 172.8c-44.8 0-83.2-38.4-83.2-89.6S454.4 0 499.2 0s89.6 38.4 89.6 89.6-38.4 83.2-89.6 83.2z" p-id="1376" fill="#9C9C9C"/></g><g class="isotype-0" transform="translate(524, 62.5)" width="100" height="100"><path transform="scale(0.05)" d="M614.4 947.2c0 19.2 0 44.8-6.4 57.6-6.4 12.8-19.2 12.8-32 19.2h-19.2c-6.4 0-12.8 0-12.8-6.4-25.6-12.8-19.2-57.6-19.2-96V620.8h-19.2V998.4c-6.4 19.2-38.4 32-64 19.2-12.8-6.4-19.2-12.8-25.6-25.6V320h-12.8v313.6c0 19.2-19.2 38.4-51.2 32-38.4-6.4-32-76.8-32-121.6V345.6c0-70.4-6.4-121.6 44.8-140.8 25.6-12.8 64-12.8 96-12.8h108.8c25.6 0 57.6 0 76.8 6.4 19.2 6.4 38.4 19.2 44.8 32 19.2 25.6 12.8 115.2 12.8 166.4v192c0 38.4 0 64-19.2 76.8h-25.6c-25.6-12.8-25.6-38.4-25.6-76.8V320h-19.2v627.2zM499.2 172.8c-44.8 0-83.2-38.4-83.2-89.6S454.4 0 499.2 0s89.6 38.4 89.6 89.6-38.4 83.2-89.6 83.2z" p-id="1376" fill="#9C9C9C"/></g><g class="isotype-0" transform="translate(546, 62.5)" width="100" height="100"><path transform="scale(0.05)" d="M614.4 947.2c0 19.2 0 44.8-6.4 57.6-6.4 12.8-19.2 12.8-32 19.2h-19.2c-6.4 0-12.8 0-12.8-6.4-25.6-12.8-19.2-57.6-19.2-96V620.8h-19.2V998.4c-6.4 19.2-38.4 32-64 19.2-12.8-6.4-19.2-12.8-25.6-25.6V320h-12.8v313.6c0 19.2-19.2 38.4-51.2 32-38.4-6.4-32-76.8-32-121.6V345.6c0-70.4-6.4-121.6 44.8-140.8 25.6-12.8 64-12.8 96-12.8h108.8c25.6 0 57.6 0 76.8 6.4 19.2 6.4 38.4 19.2 44.8 32 19.2 25.6 12.8 115.2 12.8 166.4v192c0 38.4 0 64-19.2 76.8h-25.6c-25.6-12.8-25.6-38.4-25.6-76.8V320h-19.2v627.2zM499.2 172.8c-44.8 0-83.2-38.4-83.2-89.6S454.4 0 499.2 0s89.6 38.4 89.6 89.6-38.4 83.2-89.6 83.2z" p-id="1376" fill="#9C9C9C"/></g><g class="isotype-0" transform="translate(568, 62.5)" width="100" height="100"><path transform="scale(0.05)" d="M614.4 947.2c0 19.2 0 44.8-6.4 57.6-6.4 12.8-19.2 12.8-32 19.2h-19.2c-6.4 0-12.8 0-12.8-6.4-25.6-12.8-19.2-57.6-19.2-96V620.8h-19.2V998.4c-6.4 19.2-38.4 32-64 19.2-12.8-6.4-19.2-12.8-25.6-25.6V320h-12.8v313.6c0 19.2-19.2 38.4-51.2 32-38.4-6.4-32-76.8-32-121.6V345.6c0-70.4-6.4-121.6 44.8-140.8 25.6-12.8 64-12.8 96-12.8h108.8c25.6 0 57.6 0 76.8 6.4 19.2 6.4 38.4 19.2 44.8 32 19.2 25.6 12.8 115.2 12.8 166.4v192c0 38.4 0 64-19.2 76.8h-25.6c-25.6-12.8-25.6-38.4-25.6-76.8V320h-19.2v627.2zM499.2 172.8c-44.8 0-83.2-38.4-83.2-89.6S454.4 0 499.2 0s89.6 38.4 89.6 89.6-38.4 83.2-89.6 83.2z" p-id="1376" fill="#9C9C9C"/></g><g class="isotype-0" transform="translate(590, 62.5)" width="100" height="100"><path transform="scale(0.05)" d="M614.4 947.2c0 19.2 0 44.8-6.4 57.6-6.4 12.8-19.2 12.8-32 19.2h-19.2c-6.4 0-12.8 0-12.8-6.4-25.6-12.8-19.2-57.6-19.2-96V620.8h-19.2V998.4c-6.4 19.2-38.4 32-64 19.2-12.8-6.4-19.2-12.8-25.6-25.6V320h-12.8v313.6c0 19.2-19.2 38.4-51.2 32-38.4-6.4-32-76.8-32-121.6V345.6c0-70.4-6.4-121.6 44.8-140.8 25.6-12.8 64-12.8 96-12.8h108.8c25.6 0 57.6 0 76.8 6.4 19.2 6.4 38.4 19.2 44.8 32 19.2 25.6 12.8 115.2 12.8 166.4v192c0 38.4 0 64-19.2 76.8h-25.6c-25.6-12.8-25.6-38.4-25.6-76.8V320h-19.2v627.2zM499.2 172.8c-44.8 0-83.2-38.4-83.2-89.6S454.4 0 499.2 0s89.6 38.4 89.6 89.6-38.4 83.2-89.6 83.2z" p-id="1376" fill="#9C9C9C"/></g><g class="isotype-0" transform="translate(612, 62.5)" width="100" height="100"><path transform="scale(0.05)" d="M614.4 947.2c0 19.2 0 44.8-6.4 57.6-6.4 12.8-19.2 12.8-32 19.2h-19.2c-6.4 0-12.8 0-12.8-6.4-25.6-12.8-19.2-57.6-19.2-96V620.8h-19.2V998.4c-6.4 19.2-38.4 32-64 19.2-12.8-6.4-19.2-12.8-25.6-25.6V320h-12.8v313.6c0 19.2-19.2 38.4-51.2 32-38.4-6.4-32-76.8-32-121.6V345.6c0-70.4-6.4-121.6 44.8-140.8 25.6-12.8 64-12.8 96-12.8h108.8c25.6 0 57.6 0 76.8 6.4 19.2 6.4 38.4 19.2 44.8 32 19.2 25.6 12.8 115.2 12.8 166.4v192c0 38.4 0 64-19.2 76.8h-25.6c-25.6-12.8-25.6-38.4-25.6-76.8V320h-19.2v627.2zM499.2 172.8c-44.8 0-83.2-38.4-83.2-89.6S454.4 0 499.2 0s89.6 38.4 89.6 89.6-38.4 83.2-89.6 83.2z" p-id="1376" fill="#9C9C9C"/></g><g class="isotype-1" transform="translate(150, 172.5)" width="100" height="100"><path transform="scale(0.05)" d="M614.4 947.2c0 19.2 0 44.8-6.4 57.6-6.4 12.8-19.2 12.8-32 19.2h-19.2c-6.4 0-12.8 0-12.8-6.4-25.6-12.8-19.2-57.6-19.2-96V620.8h-19.2V998.4c-6.4 19.2-38.4 32-64 19.2-12.8-6.4-19.2-12.8-25.6-25.6V320h-12.8v313.6c0 19.2-19.2 38.4-51.2 32-38.4-6.4-32-76.8-32-121.6V345.6c0-70.4-6.4-121.6 44.8-140.8 25.6-12.8 64-12.8 96-12.8h108.8c25.6 0 57.6 0 76.8 6.4 19.2 6.4 38.4 19.2 44.8 32 19.2 25.6 12.8 115.2 12.8 166.4v192c0 38.4 0 64-19.2 76.8h-25.6c-25.6-12.8-25.6-38.4-25.6-76.8V320h-19.2v627.2zM499.2 172.8c-44.8 0-83.2-38.4-83.2-89.6S454.4 0 499.2 0s89.6 38.4 89.6 89.6-38.4 83.2-89.6 83.2z" p-id="1376" fill="#ED7D30"/></g><g class="isotype-1" transform="translate(172, 172.5)" width="100" height="100"><path transform="scale(0.05)" d="M614.4 947.2c0 19.2 0 44.8-6.4 57.6-6.4 12.8-19.2 12.8-32 19.2h-19.2c-6.4 0-12.8 0-12.8-6.4-25.6-12.8-19.2-57.6-19.2-96V620.8h-19.2V998.4c-6.4 19.2-38.4 32-64 19.2-12.8-6.4-19.2-12.8-25.6-25.6V320h-12.8v313.6c0 19.2-19.2 38.4-51.2 32-38.4-6.4-32-76.8-32-121.6V345.6c0-70.4-6.4-121.6 44.8-140.8 25.6-12.8 64-12.8 96-12.8h108.8c25.6 0 57.6 0 76.8 6.4 19.2 6.4 38.4 19.2 44.8 32 19.2 25.6 12.8 115.2 12.8 166.4v192c0 38.4 0 64-19.2 76.8h-25.6c-25.6-12.8-25.6-38.4-25.6-76.8V320h-19.2v627.2zM499.2 172.8c-44.8 0-83.2-38.4-83.2-89.6S454.4 0 499.2 0s89.6 38.4 89.6 89.6-38.4 83.2-89.6 83.2z" p-id="1376" fill="#ED7D30"/></g><g class="isotype-1" transform="translate(194, 172.5)" width="100" height="100"><path transform="scale(0.05)" d="M614.4 947.2c0 19.2 0 44.8-6.4 57.6-6.4 12.8-19.2 12.8-32 19.2h-19.2c-6.4 0-12.8 0-12.8-6.4-25.6-12.8-19.2-57.6-19.2-96V620.8h-19.2V998.4c-6.4 19.2-38.4 32-64 19.2-12.8-6.4-19.2-12.8-25.6-25.6V320h-12.8v313.6c0 19.2-19.2 38.4-51.2 32-38.4-6.4-32-76.8-32-121.6V345.6c0-70.4-6.4-121.6 44.8-140.8 25.6-12.8 64-12.8 96-12.8h108.8c25.6 0 57.6 0 76.8 6.4 19.2 6.4 38.4 19.2 44.8 32 19.2 25.6 12.8 115.2 12.8 166.4v192c0 38.4 0 64-19.2 76.8h-25.6c-25.6-12.8-25.6-38.4-25.6-76.8V320h-19.2v627.2zM499.2 172.8c-44.8 0-83.2-38.4-83.2-89.6S454.4 0 499.2 0s89.6 38.4 89.6 89.6-38.4 83.2-89.6 83.2z" p-id="1376" fill="#ED7D30"/></g><g class="isotype-1" transform="translate(216, 172.5)" width="100" height="100"><path transform="scale(0.05)" d="M614.4 947.2c0 19.2 0 44.8-6.4 57.6-6.4 12.8-19.2 12.8-32 19.2h-19.2c-6.4 0-12.8 0-12.8-6.4-25.6-12.8-19.2-57.6-19.2-96V620.8h-19.2V998.4c-6.4 19.2-38.4 32-64 19.2-12.8-6.4-19.2-12.8-25.6-25.6V320h-12.8v313.6c0 19.2-19.2 38.4-51.2 32-38.4-6.4-32-76.8-32-121.6V345.6c0-70.4-6.4-121.6 44.8-140.8 25.6-12.8 64-12.8 96-12.8h108.8c25.6 0 57.6 0 76.8 6.4 19.2 6.4 38.4 19.2 44.8 32 19.2 25.6 12.8 115.2 12.8 166.4v192c0 38.4 0 64-19.2 76.8h-25.6c-25.6-12.8-25.6-38.4-25.6-76.8V320h-19.2v627.2zM499.2 172.8c-44.8 0-83.2-38.4-83.2-89.6S454.4 0 499.2 0s89.6 38.4 89.6 89.6-38.4 83.2-89.6 83.2z" p-id="1376" fill="#ED7D30"/></g><g class="isotype-1" transform="translate(238, 172.5)" width="100" height="100"><path transform="scale(0.05)" d="M614.4 947.2c0 19.2 0 44.8-6.4 57.6-6.4 12.8-19.2 12.8-32 19.2h-19.2c-6.4 0-12.8 0-12.8-6.4-25.6-12.8-19.2-57.6-19.2-96V620.8h-19.2V998.4c-6.4 19.2-38.4 32-64 19.2-12.8-6.4-19.2-12.8-25.6-25.6V320h-12.8v313.6c0 19.2-19.2 38.4-51.2 32-38.4-6.4-32-76.8-32-121.6V345.6c0-70.4-6.4-121.6 44.8-140.8 25.6-12.8 64-12.8 96-12.8h108.8c25.6 0 57.6 0 76.8 6.4 19.2 6.4 38.4 19.2 44.8 32 19.2 25.6 12.8 115.2 12.8 166.4v192c0 38.4 0 64-19.2 76.8h-25.6c-25.6-12.8-25.6-38.4-25.6-76.8V320h-19.2v627.2zM499.2 172.8c-44.8 0-83.2-38.4-83.2-89.6S454.4 0 499.2 0s89.6 38.4 89.6 89.6-38.4 83.2-89.6 83.2z" p-id="1376" fill="#ED7D30"/></g><g class="isotype-1" transform="translate(260, 172.5)" width="100" height="100"><path transform="scale(0.05)" d="M614.4 947.2c0 19.2 0 44.8-6.4 57.6-6.4 12.8-19.2 12.8-32 19.2h-19.2c-6.4 0-12.8 0-12.8-6.4-25.6-12.8-19.2-57.6-19.2-96V620.8h-19.2V998.4c-6.4 19.2-38.4 32-64 19.2-12.8-6.4-19.2-12.8-25.6-25.6V320h-12.8v313.6c0 19.2-19.2 38.4-51.2 32-38.4-6.4-32-76.8-32-121.6V345.6c0-70.4-6.4-121.6 44.8-140.8 25.6-12.8 64-12.8 96-12.8h108.8c25.6 0 57.6 0 76.8 6.4 19.2 6.4 38.4 19.2 44.8 32 19.2 25.6 12.8 115.2 12.8 166.4v192c0 38.4 0 64-19.2 76.8h-25.6c-25.6-12.8-25.6-38.4-25.6-76.8V320h-19.2v627.2zM499.2 172.8c-44.8 0-83.2-38.4-83.2-89.6S454.4 0 499.2 0s89.6 38.4 89.6 89.6-38.4 83.2-89.6 83.2z" p-id="1376" fill="#ED7D30"/></g><g class="isotype-1" transform="translate(282, 172.5)" width="100" height="100"><path transform="scale(0.05)" d="M614.4 947.2c0 19.2 0 44.8-6.4 57.6-6.4 12.8-19.2 12.8-32 19.2h-19.2c-6.4 0-12.8 0-12.8-6.4-25.6-12.8-19.2-57.6-19.2-96V620.8h-19.2V998.4c-6.4 19.2-38.4 32-64 19.2-12.8-6.4-19.2-12.8-25.6-25.6V320h-12.8v313.6c0 19.2-19.2 38.4-51.2 32-38.4-6.4-32-76.8-32-121.6V345.6c0-70.4-6.4-121.6 44.8-140.8 25.6-12.8 64-12.8 96-12.8h108.8c25.6 0 57.6 0 76.8 6.4 19.2 6.4 38.4 19.2 44.8 32 19.2 25.6 12.8 115.2 12.8 166.4v192c0 38.4 0 64-19.2 76.8h-25.6c-25.6-12.8-25.6-38.4-25.6-76.8V320h-19.2v627.2zM499.2 172.8c-44.8 0-83.2-38.4-83.2-89.6S454.4 0 499.2 0s89.6 38.4 89.6 89.6-38.4 83.2-89.6 83.2z" p-id="1376" fill="#ED7D30"/></g><g class="isotype-1" transform="translate(304, 172.5)" width="100" height="100"><path transform="scale(0.05)" d="M614.4 947.2c0 19.2 0 44.8-6.4 57.6-6.4 12.8-19.2 12.8-32 19.2h-19.2c-6.4 0-12.8 0-12.8-6.4-25.6-12.8-19.2-57.6-19.2-96V620.8h-19.2V998.4c-6.4 19.2-38.4 32-64 19.2-12.8-6.4-19.2-12.8-25.6-25.6V320h-12.8v313.6c0 19.2-19.2 38.4-51.2 32-38.4-6.4-32-76.8-32-121.6V345.6c0-70.4-6.4-121.6 44.8-140.8 25.6-12.8 64-12.8 96-12.8h108.8c25.6 0 57.6 0 76.8 6.4 19.2 6.4 38.4 19.2 44.8 32 19.2 25.6 12.8 115.2 12.8 166.4v192c0 38.4 0 64-19.2 76.8h-25.6c-25.6-12.8-25.6-38.4-25.6-76.8V320h-19.2v627.2zM499.2 172.8c-44.8 0-83.2-38.4-83.2-89.6S454.4 0 499.2 0s89.6 38.4 89.6 89.6-38.4 83.2-89.6 83.2z" p-id="1376" fill="#ED7D30"/></g><g class="isotype-1" transform="translate(326, 172.5)" width="100" height="100"><path transform="scale(0.05)" d="M614.4 947.2c0 19.2 0 44.8-6.4 57.6-6.4 12.8-19.2 12.8-32 19.2h-19.2c-6.4 0-12.8 0-12.8-6.4-25.6-12.8-19.2-57.6-19.2-96V620.8h-19.2V998.4c-6.4 19.2-38.4 32-64 19.2-12.8-6.4-19.2-12.8-25.6-25.6V320h-12.8v313.6c0 19.2-19.2 38.4-51.2 32-38.4-6.4-32-76.8-32-121.6V345.6c0-70.4-6.4-121.6 44.8-140.8 25.6-12.8 64-12.8 96-12.8h108.8c25.6 0 57.6 0 76.8 6.4 19.2 6.4 38.4 19.2 44.8 32 19.2 25.6 12.8 115.2 12.8 166.4v192c0 38.4 0 64-19.2 76.8h-25.6c-25.6-12.8-25.6-38.4-25.6-76.8V320h-19.2v627.2zM499.2 172.8c-44.8 0-83.2-38.4-83.2-89.6S454.4 0 499.2 0s89.6 38.4 89.6 89.6-38.4 83.2-89.6 83.2z" p-id="1376" fill="#ED7D30"/></g><g class="isotype-1" transform="translate(348, 172.5)" width="100" height="100"><path transform="scale(0.05)" d="M614.4 947.2c0 19.2 0 44.8-6.4 57.6-6.4 12.8-19.2 12.8-32 19.2h-19.2c-6.4 0-12.8 0-12.8-6.4-25.6-12.8-19.2-57.6-19.2-96V620.8h-19.2V998.4c-6.4 19.2-38.4 32-64 19.2-12.8-6.4-19.2-12.8-25.6-25.6V320h-12.8v313.6c0 19.2-19.2 38.4-51.2 32-38.4-6.4-32-76.8-32-121.6V345.6c0-70.4-6.4-121.6 44.8-140.8 25.6-12.8 64-12.8 96-12.8h108.8c25.6 0 57.6 0 76.8 6.4 19.2 6.4 38.4 19.2 44.8 32 19.2 25.6 12.8 115.2 12.8 166.4v192c0 38.4 0 64-19.2 76.8h-25.6c-25.6-12.8-25.6-38.4-25.6-76.8V320h-19.2v627.2zM499.2 172.8c-44.8 0-83.2-38.4-83.2-89.6S454.4 0 499.2 0s89.6 38.4 89.6 89.6-38.4 83.2-89.6 83.2z" p-id="1376" fill="#ED7D30"/></g><g class="isotype-1" transform="translate(370, 172.5)" width="100" height="100"><path transform="scale(0.05)" d="M614.4 947.2c0 19.2 0 44.8-6.4 57.6-6.4 12.8-19.2 12.8-32 19.2h-19.2c-6.4 0-12.8 0-12.8-6.4-25.6-12.8-19.2-57.6-19.2-96V620.8h-19.2V998.4c-6.4 19.2-38.4 32-64 19.2-12.8-6.4-19.2-12.8-25.6-25.6V320h-12.8v313.6c0 19.2-19.2 38.4-51.2 32-38.4-6.4-32-76.8-32-121.6V345.6c0-70.4-6.4-121.6 44.8-140.8 25.6-12.8 64-12.8 96-12.8h108.8c25.6 0 57.6 0 76.8 6.4 19.2 6.4 38.4 19.2 44.8 32 19.2 25.6 12.8 115.2 12.8 166.4v192c0 38.4 0 64-19.2 76.8h-25.6c-25.6-12.8-25.6-38.4-25.6-76.8V320h-19.2v627.2zM499.2 172.8c-44.8 0-83.2-38.4-83.2-89.6S454.4 0 499.2 0s89.6 38.4 89.6 89.6-38.4 83.2-89.6 83.2z" p-id="1376" fill="#ED7D30"/></g><g class="isotype-1" transform="translate(392, 172.5)" width="100" height="100"><path transform="scale(0.05)" d="M614.4 947.2c0 19.2 0 44.8-6.4 57.6-6.4 12.8-19.2 12.8-32 19.2h-19.2c-6.4 0-12.8 0-12.8-6.4-25.6-12.8-19.2-57.6-19.2-96V620.8h-19.2V998.4c-6.4 19.2-38.4 32-64 19.2-12.8-6.4-19.2-12.8-25.6-25.6V320h-12.8v313.6c0 19.2-19.2 38.4-51.2 32-38.4-6.4-32-76.8-32-121.6V345.6c0-70.4-6.4-121.6 44.8-140.8 25.6-12.8 64-12.8 96-12.8h108.8c25.6 0 57.6 0 76.8 6.4 19.2 6.4 38.4 19.2 44.8 32 19.2 25.6 12.8 115.2 12.8 166.4v192c0 38.4 0 64-19.2 76.8h-25.6c-25.6-12.8-25.6-38.4-25.6-76.8V320h-19.2v627.2zM499.2 172.8c-44.8 0-83.2-38.4-83.2-89.6S454.4 0 499.2 0s89.6 38.4 89.6 89.6-38.4 83.2-89.6 83.2z" p-id="1376" fill="#ED7D30"/></g><g class="isotype-1" transform="translate(414, 172.5)" width="100" height="100"><path transform="scale(0.05)" d="M614.4 947.2c0 19.2 0 44.8-6.4 57.6-6.4 12.8-19.2 12.8-32 19.2h-19.2c-6.4 0-12.8 0-12.8-6.4-25.6-12.8-19.2-57.6-19.2-96V620.8h-19.2V998.4c-6.4 19.2-38.4 32-64 19.2-12.8-6.4-19.2-12.8-25.6-25.6V320h-12.8v313.6c0 19.2-19.2 38.4-51.2 32-38.4-6.4-32-76.8-32-121.6V345.6c0-70.4-6.4-121.6 44.8-140.8 25.6-12.8 64-12.8 96-12.8h108.8c25.6 0 57.6 0 76.8 6.4 19.2 6.4 38.4 19.2 44.8 32 19.2 25.6 12.8 115.2 12.8 166.4v192c0 38.4 0 64-19.2 76.8h-25.6c-25.6-12.8-25.6-38.4-25.6-76.8V320h-19.2v627.2zM499.2 172.8c-44.8 0-83.2-38.4-83.2-89.6S454.4 0 499.2 0s89.6 38.4 89.6 89.6-38.4 83.2-89.6 83.2z" p-id="1376" fill="#ED7D30"/></g><g class="isotype-1" transform="translate(436, 172.5)" width="100" height="100"><path transform="scale(0.05)" d="M614.4 947.2c0 19.2 0 44.8-6.4 57.6-6.4 12.8-19.2 12.8-32 19.2h-19.2c-6.4 0-12.8 0-12.8-6.4-25.6-12.8-19.2-57.6-19.2-96V620.8h-19.2V998.4c-6.4 19.2-38.4 32-64 19.2-12.8-6.4-19.2-12.8-25.6-25.6V320h-12.8v313.6c0 19.2-19.2 38.4-51.2 32-38.4-6.4-32-76.8-32-121.6V345.6c0-70.4-6.4-121.6 44.8-140.8 25.6-12.8 64-12.8 96-12.8h108.8c25.6 0 57.6 0 76.8 6.4 19.2 6.4 38.4 19.2 44.8 32 19.2 25.6 12.8 115.2 12.8 166.4v192c0 38.4 0 64-19.2 76.8h-25.6c-25.6-12.8-25.6-38.4-25.6-76.8V320h-19.2v627.2zM499.2 172.8c-44.8 0-83.2-38.4-83.2-89.6S454.4 0 499.2 0s89.6 38.4 89.6 89.6-38.4 83.2-89.6 83.2z" p-id="1376" fill="#ED7D30"/></g><g class="isotype-1" transform="translate(458, 172.5)" width="100" height="100"><path transform="scale(0.05)" d="M614.4 947.2c0 19.2 0 44.8-6.4 57.6-6.4 12.8-19.2 12.8-32 19.2h-19.2c-6.4 0-12.8 0-12.8-6.4-25.6-12.8-19.2-57.6-19.2-96V620.8h-19.2V998.4c-6.4 19.2-38.4 32-64 19.2-12.8-6.4-19.2-12.8-25.6-25.6V320h-12.8v313.6c0 19.2-19.2 38.4-51.2 32-38.4-6.4-32-76.8-32-121.6V345.6c0-70.4-6.4-121.6 44.8-140.8 25.6-12.8 64-12.8 96-12.8h108.8c25.6 0 57.6 0 76.8 6.4 19.2 6.4 38.4 19.2 44.8 32 19.2 25.6 12.8 115.2 12.8 166.4v192c0 38.4 0 64-19.2 76.8h-25.6c-25.6-12.8-25.6-38.4-25.6-76.8V320h-19.2v627.2zM499.2 172.8c-44.8 0-83.2-38.4-83.2-89.6S454.4 0 499.2 0s89.6 38.4 89.6 89.6-38.4 83.2-89.6 83.2z" p-id="1376" fill="#ED7D30"/></g><g class="isotype-1" transform="translate(480, 172.5)" width="100" height="100"><path transform="scale(0.05)" d="M614.4 947.2c0 19.2 0 44.8-6.4 57.6-6.4 12.8-19.2 12.8-32 19.2h-19.2c-6.4 0-12.8 0-12.8-6.4-25.6-12.8-19.2-57.6-19.2-96V620.8h-19.2V998.4c-6.4 19.2-38.4 32-64 19.2-12.8-6.4-19.2-12.8-25.6-25.6V320h-12.8v313.6c0 19.2-19.2 38.4-51.2 32-38.4-6.4-32-76.8-32-121.6V345.6c0-70.4-6.4-121.6 44.8-140.8 25.6-12.8 64-12.8 96-12.8h108.8c25.6 0 57.6 0 76.8 6.4 19.2 6.4 38.4 19.2 44.8 32 19.2 25.6 12.8 115.2 12.8 166.4v192c0 38.4 0 64-19.2 76.8h-25.6c-25.6-12.8-25.6-38.4-25.6-76.8V320h-19.2v627.2zM499.2 172.8c-44.8 0-83.2-38.4-83.2-89.6S454.4 0 499.2 0s89.6 38.4 89.6 89.6-38.4 83.2-89.6 83.2z" p-id="1376" fill="#ED7D30"/></g><g class="isotype-1" transform="translate(502, 172.5)" width="100" height="100"><path transform="scale(0.05)" d="M614.4 947.2c0 19.2 0 44.8-6.4 57.6-6.4 12.8-19.2 12.8-32 19.2h-19.2c-6.4 0-12.8 0-12.8-6.4-25.6-12.8-19.2-57.6-19.2-96V620.8h-19.2V998.4c-6.4 19.2-38.4 32-64 19.2-12.8-6.4-19.2-12.8-25.6-25.6V320h-12.8v313.6c0 19.2-19.2 38.4-51.2 32-38.4-6.4-32-76.8-32-121.6V345.6c0-70.4-6.4-121.6 44.8-140.8 25.6-12.8 64-12.8 96-12.8h108.8c25.6 0 57.6 0 76.8 6.4 19.2 6.4 38.4 19.2 44.8 32 19.2 25.6 12.8 115.2 12.8 166.4v192c0 38.4 0 64-19.2 76.8h-25.6c-25.6-12.8-25.6-38.4-25.6-76.8V320h-19.2v627.2zM499.2 172.8c-44.8 0-83.2-38.4-83.2-89.6S454.4 0 499.2 0s89.6 38.4 89.6 89.6-38.4 83.2-89.6 83.2z" p-id="1376" fill="#ED7D30"/></g><g class="isotype-1" transform="translate(524, 172.5)" width="100" height="100"><path transform="scale(0.05)" d="M614.4 947.2c0 19.2 0 44.8-6.4 57.6-6.4 12.8-19.2 12.8-32 19.2h-19.2c-6.4 0-12.8 0-12.8-6.4-25.6-12.8-19.2-57.6-19.2-96V620.8h-19.2V998.4c-6.4 19.2-38.4 32-64 19.2-12.8-6.4-19.2-12.8-25.6-25.6V320h-12.8v313.6c0 19.2-19.2 38.4-51.2 32-38.4-6.4-32-76.8-32-121.6V345.6c0-70.4-6.4-121.6 44.8-140.8 25.6-12.8 64-12.8 96-12.8h108.8c25.6 0 57.6 0 76.8 6.4 19.2 6.4 38.4 19.2 44.8 32 19.2 25.6 12.8 115.2 12.8 166.4v192c0 38.4 0 64-19.2 76.8h-25.6c-25.6-12.8-25.6-38.4-25.6-76.8V320h-19.2v627.2zM499.2 172.8c-44.8 0-83.2-38.4-83.2-89.6S454.4 0 499.2 0s89.6 38.4 89.6 89.6-38.4 83.2-89.6 83.2z" p-id="1376" fill="#9C9C9C"/></g><g class="isotype-1" transform="translate(546, 172.5)" width="100" height="100"><path transform="scale(0.05)" d="M614.4 947.2c0 19.2 0 44.8-6.4 57.6-6.4 12.8-19.2 12.8-32 19.2h-19.2c-6.4 0-12.8 0-12.8-6.4-25.6-12.8-19.2-57.6-19.2-96V620.8h-19.2V998.4c-6.4 19.2-38.4 32-64 19.2-12.8-6.4-19.2-12.8-25.6-25.6V320h-12.8v313.6c0 19.2-19.2 38.4-51.2 32-38.4-6.4-32-76.8-32-121.6V345.6c0-70.4-6.4-121.6 44.8-140.8 25.6-12.8 64-12.8 96-12.8h108.8c25.6 0 57.6 0 76.8 6.4 19.2 6.4 38.4 19.2 44.8 32 19.2 25.6 12.8 115.2 12.8 166.4v192c0 38.4 0 64-19.2 76.8h-25.6c-25.6-12.8-25.6-38.4-25.6-76.8V320h-19.2v627.2zM499.2 172.8c-44.8 0-83.2-38.4-83.2-89.6S454.4 0 499.2 0s89.6 38.4 89.6 89.6-38.4 83.2-89.6 83.2z" p-id="1376" fill="#9C9C9C"/></g><g class="isotype-1" transform="translate(568, 172.5)" width="100" height="100"><path transform="scale(0.05)" d="M614.4 947.2c0 19.2 0 44.8-6.4 57.6-6.4 12.8-19.2 12.8-32 19.2h-19.2c-6.4 0-12.8 0-12.8-6.4-25.6-12.8-19.2-57.6-19.2-96V620.8h-19.2V998.4c-6.4 19.2-38.4 32-64 19.2-12.8-6.4-19.2-12.8-25.6-25.6V320h-12.8v313.6c0 19.2-19.2 38.4-51.2 32-38.4-6.4-32-76.8-32-121.6V345.6c0-70.4-6.4-121.6 44.8-140.8 25.6-12.8 64-12.8 96-12.8h108.8c25.6 0 57.6 0 76.8 6.4 19.2 6.4 38.4 19.2 44.8 32 19.2 25.6 12.8 115.2 12.8 166.4v192c0 38.4 0 64-19.2 76.8h-25.6c-25.6-12.8-25.6-38.4-25.6-76.8V320h-19.2v627.2zM499.2 172.8c-44.8 0-83.2-38.4-83.2-89.6S454.4 0 499.2 0s89.6 38.4 89.6 89.6-38.4 83.2-89.6 83.2z" p-id="1376" fill="#9C9C9C"/></g><g class="isotype-1" transform="translate(590, 172.5)" width="100" height="100"><path transform="scale(0.05)" d="M614.4 947.2c0 19.2 0 44.8-6.4 57.6-6.4 12.8-19.2 12.8-32 19.2h-19.2c-6.4 0-12.8 0-12.8-6.4-25.6-12.8-19.2-57.6-19.2-96V620.8h-19.2V998.4c-6.4 19.2-38.4 32-64 19.2-12.8-6.4-19.2-12.8-25.6-25.6V320h-12.8v313.6c0 19.2-19.2 38.4-51.2 32-38.4-6.4-32-76.8-32-121.6V345.6c0-70.4-6.4-121.6 44.8-140.8 25.6-12.8 64-12.8 96-12.8h108.8c25.6 0 57.6 0 76.8 6.4 19.2 6.4 38.4 19.2 44.8 32 19.2 25.6 12.8 115.2 12.8 166.4v192c0 38.4 0 64-19.2 76.8h-25.6c-25.6-12.8-25.6-38.4-25.6-76.8V320h-19.2v627.2zM499.2 172.8c-44.8 0-83.2-38.4-83.2-89.6S454.4 0 499.2 0s89.6 38.4 89.6 89.6-38.4 83.2-89.6 83.2z" p-id="1376" fill="#9C9C9C"/></g><g class="isotype-1" transform="translate(612, 172.5)" width="100" height="100"><path transform="scale(0.05)" d="M614.4 947.2c0 19.2 0 44.8-6.4 57.6-6.4 12.8-19.2 12.8-32 19.2h-19.2c-6.4 0-12.8 0-12.8-6.4-25.6-12.8-19.2-57.6-19.2-96V620.8h-19.2V998.4c-6.4 19.2-38.4 32-64 19.2-12.8-6.4-19.2-12.8-25.6-25.6V320h-12.8v313.6c0 19.2-19.2 38.4-51.2 32-38.4-6.4-32-76.8-32-121.6V345.6c0-70.4-6.4-121.6 44.8-140.8 25.6-12.8 64-12.8 96-12.8h108.8c25.6 0 57.6 0 76.8 6.4 19.2 6.4 38.4 19.2 44.8 32 19.2 25.6 12.8 115.2 12.8 166.4v192c0 38.4 0 64-19.2 76.8h-25.6c-25.6-12.8-25.6-38.4-25.6-76.8V320h-19.2v627.2zM499.2 172.8c-44.8 0-83.2-38.4-83.2-89.6S454.4 0 499.2 0s89.6 38.4 89.6 89.6-38.4 83.2-89.6 83.2z" p-id="1376" fill="#9C9C9C"/></g><g class="isotype-2" transform="translate(150, 282.5)" width="100" height="100"><path transform="scale(0.05)" d="M614.4 947.2c0 19.2 0 44.8-6.4 57.6-6.4 12.8-19.2 12.8-32 19.2h-19.2c-6.4 0-12.8 0-12.8-6.4-25.6-12.8-19.2-57.6-19.2-96V620.8h-19.2V998.4c-6.4 19.2-38.4 32-64 19.2-12.8-6.4-19.2-12.8-25.6-25.6V320h-12.8v313.6c0 19.2-19.2 38.4-51.2 32-38.4-6.4-32-76.8-32-121.6V345.6c0-70.4-6.4-121.6 44.8-140.8 25.6-12.8 64-12.8 96-12.8h108.8c25.6 0 57.6 0 76.8 6.4 19.2 6.4 38.4 19.2 44.8 32 19.2 25.6 12.8 115.2 12.8 166.4v192c0 38.4 0 64-19.2 76.8h-25.6c-25.6-12.8-25.6-38.4-25.6-76.8V320h-19.2v627.2zM499.2 172.8c-44.8 0-83.2-38.4-83.2-89.6S454.4 0 499.2 0s89.6 38.4 89.6 89.6-38.4 83.2-89.6 83.2z" p-id="1376" fill="#71AD46"/></g><g class="isotype-2" transform="translate(172, 282.5)" width="100" height="100"><path transform="scale(0.05)" d="M614.4 947.2c0 19.2 0 44.8-6.4 57.6-6.4 12.8-19.2 12.8-32 19.2h-19.2c-6.4 0-12.8 0-12.8-6.4-25.6-12.8-19.2-57.6-19.2-96V620.8h-19.2V998.4c-6.4 19.2-38.4 32-64 19.2-12.8-6.4-19.2-12.8-25.6-25.6V320h-12.8v313.6c0 19.2-19.2 38.4-51.2 32-38.4-6.4-32-76.8-32-121.6V345.6c0-70.4-6.4-121.6 44.8-140.8 25.6-12.8 64-12.8 96-12.8h108.8c25.6 0 57.6 0 76.8 6.4 19.2 6.4 38.4 19.2 44.8 32 19.2 25.6 12.8 115.2 12.8 166.4v192c0 38.4 0 64-19.2 76.8h-25.6c-25.6-12.8-25.6-38.4-25.6-76.8V320h-19.2v627.2zM499.2 172.8c-44.8 0-83.2-38.4-83.2-89.6S454.4 0 499.2 0s89.6 38.4 89.6 89.6-38.4 83.2-89.6 83.2z" p-id="1376" fill="#71AD46"/></g><g class="isotype-2" transform="translate(194, 282.5)" width="100" height="100"><path transform="scale(0.05)" d="M614.4 947.2c0 19.2 0 44.8-6.4 57.6-6.4 12.8-19.2 12.8-32 19.2h-19.2c-6.4 0-12.8 0-12.8-6.4-25.6-12.8-19.2-57.6-19.2-96V620.8h-19.2V998.4c-6.4 19.2-38.4 32-64 19.2-12.8-6.4-19.2-12.8-25.6-25.6V320h-12.8v313.6c0 19.2-19.2 38.4-51.2 32-38.4-6.4-32-76.8-32-121.6V345.6c0-70.4-6.4-121.6 44.8-140.8 25.6-12.8 64-12.8 96-12.8h108.8c25.6 0 57.6 0 76.8 6.4 19.2 6.4 38.4 19.2 44.8 32 19.2 25.6 12.8 115.2 12.8 166.4v192c0 38.4 0 64-19.2 76.8h-25.6c-25.6-12.8-25.6-38.4-25.6-76.8V320h-19.2v627.2zM499.2 172.8c-44.8 0-83.2-38.4-83.2-89.6S454.4 0 499.2 0s89.6 38.4 89.6 89.6-38.4 83.2-89.6 83.2z" p-id="1376" fill="#71AD46"/></g><g class="isotype-2" transform="translate(216, 282.5)" width="100" height="100"><path transform="scale(0.05)" d="M614.4 947.2c0 19.2 0 44.8-6.4 57.6-6.4 12.8-19.2 12.8-32 19.2h-19.2c-6.4 0-12.8 0-12.8-6.4-25.6-12.8-19.2-57.6-19.2-96V620.8h-19.2V998.4c-6.4 19.2-38.4 32-64 19.2-12.8-6.4-19.2-12.8-25.6-25.6V320h-12.8v313.6c0 19.2-19.2 38.4-51.2 32-38.4-6.4-32-76.8-32-121.6V345.6c0-70.4-6.4-121.6 44.8-140.8 25.6-12.8 64-12.8 96-12.8h108.8c25.6 0 57.6 0 76.8 6.4 19.2 6.4 38.4 19.2 44.8 32 19.2 25.6 12.8 115.2 12.8 166.4v192c0 38.4 0 64-19.2 76.8h-25.6c-25.6-12.8-25.6-38.4-25.6-76.8V320h-19.2v627.2zM499.2 172.8c-44.8 0-83.2-38.4-83.2-89.6S454.4 0 499.2 0s89.6 38.4 89.6 89.6-38.4 83.2-89.6 83.2z" p-id="1376" fill="#71AD46"/></g><g class="isotype-2" transform="translate(238, 282.5)" width="100" height="100"><path transform="scale(0.05)" d="M614.4 947.2c0 19.2 0 44.8-6.4 57.6-6.4 12.8-19.2 12.8-32 19.2h-19.2c-6.4 0-12.8 0-12.8-6.4-25.6-12.8-19.2-57.6-19.2-96V620.8h-19.2V998.4c-6.4 19.2-38.4 32-64 19.2-12.8-6.4-19.2-12.8-25.6-25.6V320h-12.8v313.6c0 19.2-19.2 38.4-51.2 32-38.4-6.4-32-76.8-32-121.6V345.6c0-70.4-6.4-121.6 44.8-140.8 25.6-12.8 64-12.8 96-12.8h108.8c25.6 0 57.6 0 76.8 6.4 19.2 6.4 38.4 19.2 44.8 32 19.2 25.6 12.8 115.2 12.8 166.4v192c0 38.4 0 64-19.2 76.8h-25.6c-25.6-12.8-25.6-38.4-25.6-76.8V320h-19.2v627.2zM499.2 172.8c-44.8 0-83.2-38.4-83.2-89.6S454.4 0 499.2 0s89.6 38.4 89.6 89.6-38.4 83.2-89.6 83.2z" p-id="1376" fill="#71AD46"/></g><g class="isotype-2" transform="translate(260, 282.5)" width="100" height="100"><path transform="scale(0.05)" d="M614.4 947.2c0 19.2 0 44.8-6.4 57.6-6.4 12.8-19.2 12.8-32 19.2h-19.2c-6.4 0-12.8 0-12.8-6.4-25.6-12.8-19.2-57.6-19.2-96V620.8h-19.2V998.4c-6.4 19.2-38.4 32-64 19.2-12.8-6.4-19.2-12.8-25.6-25.6V320h-12.8v313.6c0 19.2-19.2 38.4-51.2 32-38.4-6.4-32-76.8-32-121.6V345.6c0-70.4-6.4-121.6 44.8-140.8 25.6-12.8 64-12.8 96-12.8h108.8c25.6 0 57.6 0 76.8 6.4 19.2 6.4 38.4 19.2 44.8 32 19.2 25.6 12.8 115.2 12.8 166.4v192c0 38.4 0 64-19.2 76.8h-25.6c-25.6-12.8-25.6-38.4-25.6-76.8V320h-19.2v627.2zM499.2 172.8c-44.8 0-83.2-38.4-83.2-89.6S454.4 0 499.2 0s89.6 38.4 89.6 89.6-38.4 83.2-89.6 83.2z" p-id="1376" fill="#71AD46"/></g><g class="isotype-2" transform="translate(282, 282.5)" width="100" height="100"><path transform="scale(0.05)" d="M614.4 947.2c0 19.2 0 44.8-6.4 57.6-6.4 12.8-19.2 12.8-32 19.2h-19.2c-6.4 0-12.8 0-12.8-6.4-25.6-12.8-19.2-57.6-19.2-96V620.8h-19.2V998.4c-6.4 19.2-38.4 32-64 19.2-12.8-6.4-19.2-12.8-25.6-25.6V320h-12.8v313.6c0 19.2-19.2 38.4-51.2 32-38.4-6.4-32-76.8-32-121.6V345.6c0-70.4-6.4-121.6 44.8-140.8 25.6-12.8 64-12.8 96-12.8h108.8c25.6 0 57.6 0 76.8 6.4 19.2 6.4 38.4 19.2 44.8 32 19.2 25.6 12.8 115.2 12.8 166.4v192c0 38.4 0 64-19.2 76.8h-25.6c-25.6-12.8-25.6-38.4-25.6-76.8V320h-19.2v627.2zM499.2 172.8c-44.8 0-83.2-38.4-83.2-89.6S454.4 0 499.2 0s89.6 38.4 89.6 89.6-38.4 83.2-89.6 83.2z" p-id="1376" fill="#71AD46"/></g><g class="isotype-2" transform="translate(304, 282.5)" width="100" height="100"><path transform="scale(0.05)" d="M614.4 947.2c0 19.2 0 44.8-6.4 57.6-6.4 12.8-19.2 12.8-32 19.2h-19.2c-6.4 0-12.8 0-12.8-6.4-25.6-12.8-19.2-57.6-19.2-96V620.8h-19.2V998.4c-6.4 19.2-38.4 32-64 19.2-12.8-6.4-19.2-12.8-25.6-25.6V320h-12.8v313.6c0 19.2-19.2 38.4-51.2 32-38.4-6.4-32-76.8-32-121.6V345.6c0-70.4-6.4-121.6 44.8-140.8 25.6-12.8 64-12.8 96-12.8h108.8c25.6 0 57.6 0 76.8 6.4 19.2 6.4 38.4 19.2 44.8 32 19.2 25.6 12.8 115.2 12.8 166.4v192c0 38.4 0 64-19.2 76.8h-25.6c-25.6-12.8-25.6-38.4-25.6-76.8V320h-19.2v627.2zM499.2 172.8c-44.8 0-83.2-38.4-83.2-89.6S454.4 0 499.2 0s89.6 38.4 89.6 89.6-38.4 83.2-89.6 83.2z" p-id="1376" fill="#71AD46"/></g><g class="isotype-2" transform="translate(326, 282.5)" width="100" height="100"><path transform="scale(0.05)" d="M614.4 947.2c0 19.2 0 44.8-6.4 57.6-6.4 12.8-19.2 12.8-32 19.2h-19.2c-6.4 0-12.8 0-12.8-6.4-25.6-12.8-19.2-57.6-19.2-96V620.8h-19.2V998.4c-6.4 19.2-38.4 32-64 19.2-12.8-6.4-19.2-12.8-25.6-25.6V320h-12.8v313.6c0 19.2-19.2 38.4-51.2 32-38.4-6.4-32-76.8-32-121.6V345.6c0-70.4-6.4-121.6 44.8-140.8 25.6-12.8 64-12.8 96-12.8h108.8c25.6 0 57.6 0 76.8 6.4 19.2 6.4 38.4 19.2 44.8 32 19.2 25.6 12.8 115.2 12.8 166.4v192c0 38.4 0 64-19.2 76.8h-25.6c-25.6-12.8-25.6-38.4-25.6-76.8V320h-19.2v627.2zM499.2 172.8c-44.8 0-83.2-38.4-83.2-89.6S454.4 0 499.2 0s89.6 38.4 89.6 89.6-38.4 83.2-89.6 83.2z" p-id="1376" fill="#71AD46"/></g><g class="isotype-2" transform="translate(348, 282.5)" width="100" height="100"><path transform="scale(0.05)" d="M614.4 947.2c0 19.2 0 44.8-6.4 57.6-6.4 12.8-19.2 12.8-32 19.2h-19.2c-6.4 0-12.8 0-12.8-6.4-25.6-12.8-19.2-57.6-19.2-96V620.8h-19.2V998.4c-6.4 19.2-38.4 32-64 19.2-12.8-6.4-19.2-12.8-25.6-25.6V320h-12.8v313.6c0 19.2-19.2 38.4-51.2 32-38.4-6.4-32-76.8-32-121.6V345.6c0-70.4-6.4-121.6 44.8-140.8 25.6-12.8 64-12.8 96-12.8h108.8c25.6 0 57.6 0 76.8 6.4 19.2 6.4 38.4 19.2 44.8 32 19.2 25.6 12.8 115.2 12.8 166.4v192c0 38.4 0 64-19.2 76.8h-25.6c-25.6-12.8-25.6-38.4-25.6-76.8V320h-19.2v627.2zM499.2 172.8c-44.8 0-83.2-38.4-83.2-89.6S454.4 0 499.2 0s89.6 38.4 89.6 89.6-38.4 83.2-89.6 83.2z" p-id="1376" fill="#71AD46"/></g><g class="isotype-2" transform="translate(370, 282.5)" width="100" height="100"><path transform="scale(0.05)" d="M614.4 947.2c0 19.2 0 44.8-6.4 57.6-6.4 12.8-19.2 12.8-32 19.2h-19.2c-6.4 0-12.8 0-12.8-6.4-25.6-12.8-19.2-57.6-19.2-96V620.8h-19.2V998.4c-6.4 19.2-38.4 32-64 19.2-12.8-6.4-19.2-12.8-25.6-25.6V320h-12.8v313.6c0 19.2-19.2 38.4-51.2 32-38.4-6.4-32-76.8-32-121.6V345.6c0-70.4-6.4-121.6 44.8-140.8 25.6-12.8 64-12.8 96-12.8h108.8c25.6 0 57.6 0 76.8 6.4 19.2 6.4 38.4 19.2 44.8 32 19.2 25.6 12.8 115.2 12.8 166.4v192c0 38.4 0 64-19.2 76.8h-25.6c-25.6-12.8-25.6-38.4-25.6-76.8V320h-19.2v627.2zM499.2 172.8c-44.8 0-83.2-38.4-83.2-89.6S454.4 0 499.2 0s89.6 38.4 89.6 89.6-38.4 83.2-89.6 83.2z" p-id="1376" fill="#71AD46"/></g><g class="isotype-2" transform="translate(392, 282.5)" width="100" height="100"><path transform="scale(0.05)" d="M614.4 947.2c0 19.2 0 44.8-6.4 57.6-6.4 12.8-19.2 12.8-32 19.2h-19.2c-6.4 0-12.8 0-12.8-6.4-25.6-12.8-19.2-57.6-19.2-96V620.8h-19.2V998.4c-6.4 19.2-38.4 32-64 19.2-12.8-6.4-19.2-12.8-25.6-25.6V320h-12.8v313.6c0 19.2-19.2 38.4-51.2 32-38.4-6.4-32-76.8-32-121.6V345.6c0-70.4-6.4-121.6 44.8-140.8 25.6-12.8 64-12.8 96-12.8h108.8c25.6 0 57.6 0 76.8 6.4 19.2 6.4 38.4 19.2 44.8 32 19.2 25.6 12.8 115.2 12.8 166.4v192c0 38.4 0 64-19.2 76.8h-25.6c-25.6-12.8-25.6-38.4-25.6-76.8V320h-19.2v627.2zM499.2 172.8c-44.8 0-83.2-38.4-83.2-89.6S454.4 0 499.2 0s89.6 38.4 89.6 89.6-38.4 83.2-89.6 83.2z" p-id="1376" fill="#71AD46"/></g><g class="isotype-2" transform="translate(414, 282.5)" width="100" height="100"><path transform="scale(0.05)" d="M614.4 947.2c0 19.2 0 44.8-6.4 57.6-6.4 12.8-19.2 12.8-32 19.2h-19.2c-6.4 0-12.8 0-12.8-6.4-25.6-12.8-19.2-57.6-19.2-96V620.8h-19.2V998.4c-6.4 19.2-38.4 32-64 19.2-12.8-6.4-19.2-12.8-25.6-25.6V320h-12.8v313.6c0 19.2-19.2 38.4-51.2 32-38.4-6.4-32-76.8-32-121.6V345.6c0-70.4-6.4-121.6 44.8-140.8 25.6-12.8 64-12.8 96-12.8h108.8c25.6 0 57.6 0 76.8 6.4 19.2 6.4 38.4 19.2 44.8 32 19.2 25.6 12.8 115.2 12.8 166.4v192c0 38.4 0 64-19.2 76.8h-25.6c-25.6-12.8-25.6-38.4-25.6-76.8V320h-19.2v627.2zM499.2 172.8c-44.8 0-83.2-38.4-83.2-89.6S454.4 0 499.2 0s89.6 38.4 89.6 89.6-38.4 83.2-89.6 83.2z" p-id="1376" fill="#71AD46"/></g><g class="isotype-2" transform="translate(436, 282.5)" width="100" height="100"><path transform="scale(0.05)" d="M614.4 947.2c0 19.2 0 44.8-6.4 57.6-6.4 12.8-19.2 12.8-32 19.2h-19.2c-6.4 0-12.8 0-12.8-6.4-25.6-12.8-19.2-57.6-19.2-96V620.8h-19.2V998.4c-6.4 19.2-38.4 32-64 19.2-12.8-6.4-19.2-12.8-25.6-25.6V320h-12.8v313.6c0 19.2-19.2 38.4-51.2 32-38.4-6.4-32-76.8-32-121.6V345.6c0-70.4-6.4-121.6 44.8-140.8 25.6-12.8 64-12.8 96-12.8h108.8c25.6 0 57.6 0 76.8 6.4 19.2 6.4 38.4 19.2 44.8 32 19.2 25.6 12.8 115.2 12.8 166.4v192c0 38.4 0 64-19.2 76.8h-25.6c-25.6-12.8-25.6-38.4-25.6-76.8V320h-19.2v627.2zM499.2 172.8c-44.8 0-83.2-38.4-83.2-89.6S454.4 0 499.2 0s89.6 38.4 89.6 89.6-38.4 83.2-89.6 83.2z" p-id="1376" fill="#9C9C9C"/></g><g class="isotype-2" transform="translate(458, 282.5)" width="100" height="100"><path transform="scale(0.05)" d="M614.4 947.2c0 19.2 0 44.8-6.4 57.6-6.4 12.8-19.2 12.8-32 19.2h-19.2c-6.4 0-12.8 0-12.8-6.4-25.6-12.8-19.2-57.6-19.2-96V620.8h-19.2V998.4c-6.4 19.2-38.4 32-64 19.2-12.8-6.4-19.2-12.8-25.6-25.6V320h-12.8v313.6c0 19.2-19.2 38.4-51.2 32-38.4-6.4-32-76.8-32-121.6V345.6c0-70.4-6.4-121.6 44.8-140.8 25.6-12.8 64-12.8 96-12.8h108.8c25.6 0 57.6 0 76.8 6.4 19.2 6.4 38.4 19.2 44.8 32 19.2 25.6 12.8 115.2 12.8 166.4v192c0 38.4 0 64-19.2 76.8h-25.6c-25.6-12.8-25.6-38.4-25.6-76.8V320h-19.2v627.2zM499.2 172.8c-44.8 0-83.2-38.4-83.2-89.6S454.4 0 499.2 0s89.6 38.4 89.6 89.6-38.4 83.2-89.6 83.2z" p-id="1376" fill="#9C9C9C"/></g><g class="isotype-2" transform="translate(480, 282.5)" width="100" height="100"><path transform="scale(0.05)" d="M614.4 947.2c0 19.2 0 44.8-6.4 57.6-6.4 12.8-19.2 12.8-32 19.2h-19.2c-6.4 0-12.8 0-12.8-6.4-25.6-12.8-19.2-57.6-19.2-96V620.8h-19.2V998.4c-6.4 19.2-38.4 32-64 19.2-12.8-6.4-19.2-12.8-25.6-25.6V320h-12.8v313.6c0 19.2-19.2 38.4-51.2 32-38.4-6.4-32-76.8-32-121.6V345.6c0-70.4-6.4-121.6 44.8-140.8 25.6-12.8 64-12.8 96-12.8h108.8c25.6 0 57.6 0 76.8 6.4 19.2 6.4 38.4 19.2 44.8 32 19.2 25.6 12.8 115.2 12.8 166.4v192c0 38.4 0 64-19.2 76.8h-25.6c-25.6-12.8-25.6-38.4-25.6-76.8V320h-19.2v627.2zM499.2 172.8c-44.8 0-83.2-38.4-83.2-89.6S454.4 0 499.2 0s89.6 38.4 89.6 89.6-38.4 83.2-89.6 83.2z" p-id="1376" fill="#9C9C9C"/></g><g class="isotype-2" transform="translate(502, 282.5)" width="100" height="100"><path transform="scale(0.05)" d="M614.4 947.2c0 19.2 0 44.8-6.4 57.6-6.4 12.8-19.2 12.8-32 19.2h-19.2c-6.4 0-12.8 0-12.8-6.4-25.6-12.8-19.2-57.6-19.2-96V620.8h-19.2V998.4c-6.4 19.2-38.4 32-64 19.2-12.8-6.4-19.2-12.8-25.6-25.6V320h-12.8v313.6c0 19.2-19.2 38.4-51.2 32-38.4-6.4-32-76.8-32-121.6V345.6c0-70.4-6.4-121.6 44.8-140.8 25.6-12.8 64-12.8 96-12.8h108.8c25.6 0 57.6 0 76.8 6.4 19.2 6.4 38.4 19.2 44.8 32 19.2 25.6 12.8 115.2 12.8 166.4v192c0 38.4 0 64-19.2 76.8h-25.6c-25.6-12.8-25.6-38.4-25.6-76.8V320h-19.2v627.2zM499.2 172.8c-44.8 0-83.2-38.4-83.2-89.6S454.4 0 499.2 0s89.6 38.4 89.6 89.6-38.4 83.2-89.6 83.2z" p-id="1376" fill="#9C9C9C"/></g><g class="isotype-2" transform="translate(524, 282.5)" width="100" height="100"><path transform="scale(0.05)" d="M614.4 947.2c0 19.2 0 44.8-6.4 57.6-6.4 12.8-19.2 12.8-32 19.2h-19.2c-6.4 0-12.8 0-12.8-6.4-25.6-12.8-19.2-57.6-19.2-96V620.8h-19.2V998.4c-6.4 19.2-38.4 32-64 19.2-12.8-6.4-19.2-12.8-25.6-25.6V320h-12.8v313.6c0 19.2-19.2 38.4-51.2 32-38.4-6.4-32-76.8-32-121.6V345.6c0-70.4-6.4-121.6 44.8-140.8 25.6-12.8 64-12.8 96-12.8h108.8c25.6 0 57.6 0 76.8 6.4 19.2 6.4 38.4 19.2 44.8 32 19.2 25.6 12.8 115.2 12.8 166.4v192c0 38.4 0 64-19.2 76.8h-25.6c-25.6-12.8-25.6-38.4-25.6-76.8V320h-19.2v627.2zM499.2 172.8c-44.8 0-83.2-38.4-83.2-89.6S454.4 0 499.2 0s89.6 38.4 89.6 89.6-38.4 83.2-89.6 83.2z" p-id="1376" fill="#9C9C9C"/></g><g class="isotype-2" transform="translate(546, 282.5)" width="100" height="100"><path transform="scale(0.05)" d="M614.4 947.2c0 19.2 0 44.8-6.4 57.6-6.4 12.8-19.2 12.8-32 19.2h-19.2c-6.4 0-12.8 0-12.8-6.4-25.6-12.8-19.2-57.6-19.2-96V620.8h-19.2V998.4c-6.4 19.2-38.4 32-64 19.2-12.8-6.4-19.2-12.8-25.6-25.6V320h-12.8v313.6c0 19.2-19.2 38.4-51.2 32-38.4-6.4-32-76.8-32-121.6V345.6c0-70.4-6.4-121.6 44.8-140.8 25.6-12.8 64-12.8 96-12.8h108.8c25.6 0 57.6 0 76.8 6.4 19.2 6.4 38.4 19.2 44.8 32 19.2 25.6 12.8 115.2 12.8 166.4v192c0 38.4 0 64-19.2 76.8h-25.6c-25.6-12.8-25.6-38.4-25.6-76.8V320h-19.2v627.2zM499.2 172.8c-44.8 0-83.2-38.4-83.2-89.6S454.4 0 499.2 0s89.6 38.4 89.6 89.6-38.4 83.2-89.6 83.2z" p-id="1376" fill="#9C9C9C"/></g><g class="isotype-2" transform="translate(568, 282.5)" width="100" height="100"><path transform="scale(0.05)" d="M614.4 947.2c0 19.2 0 44.8-6.4 57.6-6.4 12.8-19.2 12.8-32 19.2h-19.2c-6.4 0-12.8 0-12.8-6.4-25.6-12.8-19.2-57.6-19.2-96V620.8h-19.2V998.4c-6.4 19.2-38.4 32-64 19.2-12.8-6.4-19.2-12.8-25.6-25.6V320h-12.8v313.6c0 19.2-19.2 38.4-51.2 32-38.4-6.4-32-76.8-32-121.6V345.6c0-70.4-6.4-121.6 44.8-140.8 25.6-12.8 64-12.8 96-12.8h108.8c25.6 0 57.6 0 76.8 6.4 19.2 6.4 38.4 19.2 44.8 32 19.2 25.6 12.8 115.2 12.8 166.4v192c0 38.4 0 64-19.2 76.8h-25.6c-25.6-12.8-25.6-38.4-25.6-76.8V320h-19.2v627.2zM499.2 172.8c-44.8 0-83.2-38.4-83.2-89.6S454.4 0 499.2 0s89.6 38.4 89.6 89.6-38.4 83.2-89.6 83.2z" p-id="1376" fill="#9C9C9C"/></g><g class="isotype-2" transform="translate(590, 282.5)" width="100" height="100"><path transform="scale(0.05)" d="M614.4 947.2c0 19.2 0 44.8-6.4 57.6-6.4 12.8-19.2 12.8-32 19.2h-19.2c-6.4 0-12.8 0-12.8-6.4-25.6-12.8-19.2-57.6-19.2-96V620.8h-19.2V998.4c-6.4 19.2-38.4 32-64 19.2-12.8-6.4-19.2-12.8-25.6-25.6V320h-12.8v313.6c0 19.2-19.2 38.4-51.2 32-38.4-6.4-32-76.8-32-121.6V345.6c0-70.4-6.4-121.6 44.8-140.8 25.6-12.8 64-12.8 96-12.8h108.8c25.6 0 57.6 0 76.8 6.4 19.2 6.4 38.4 19.2 44.8 32 19.2 25.6 12.8 115.2 12.8 166.4v192c0 38.4 0 64-19.2 76.8h-25.6c-25.6-12.8-25.6-38.4-25.6-76.8V320h-19.2v627.2zM499.2 172.8c-44.8 0-83.2-38.4-83.2-89.6S454.4 0 499.2 0s89.6 38.4 89.6 89.6-38.4 83.2-89.6 83.2z" p-id="1376" fill="#9C9C9C"/></g><g class="isotype-2" transform="translate(612, 282.5)" width="100" height="100"><path transform="scale(0.05)" d="M614.4 947.2c0 19.2 0 44.8-6.4 57.6-6.4 12.8-19.2 12.8-32 19.2h-19.2c-6.4 0-12.8 0-12.8-6.4-25.6-12.8-19.2-57.6-19.2-96V620.8h-19.2V998.4c-6.4 19.2-38.4 32-64 19.2-12.8-6.4-19.2-12.8-25.6-25.6V320h-12.8v313.6c0 19.2-19.2 38.4-51.2 32-38.4-6.4-32-76.8-32-121.6V345.6c0-70.4-6.4-121.6 44.8-140.8 25.6-12.8 64-12.8 96-12.8h108.8c25.6 0 57.6 0 76.8 6.4 19.2 6.4 38.4 19.2 44.8 32 19.2 25.6 12.8 115.2 12.8 166.4v192c0 38.4 0 64-19.2 76.8h-25.6c-25.6-12.8-25.6-38.4-25.6-76.8V320h-19.2v627.2zM499.2 172.8c-44.8 0-83.2-38.4-83.2-89.6S454.4 0 499.2 0s89.6 38.4 89.6 89.6-38.4 83.2-89.6 83.2z" p-id="1376" fill="#9C9C9C"/></g><g class="isotype-3" transform="translate(150, 392.5)" width="100" height="100"><path transform="scale(0.05)" d="M614.4 947.2c0 19.2 0 44.8-6.4 57.6-6.4 12.8-19.2 12.8-32 19.2h-19.2c-6.4 0-12.8 0-12.8-6.4-25.6-12.8-19.2-57.6-19.2-96V620.8h-19.2V998.4c-6.4 19.2-38.4 32-64 19.2-12.8-6.4-19.2-12.8-25.6-25.6V320h-12.8v313.6c0 19.2-19.2 38.4-51.2 32-38.4-6.4-32-76.8-32-121.6V345.6c0-70.4-6.4-121.6 44.8-140.8 25.6-12.8 64-12.8 96-12.8h108.8c25.6 0 57.6 0 76.8 6.4 19.2 6.4 38.4 19.2 44.8 32 19.2 25.6 12.8 115.2 12.8 166.4v192c0 38.4 0 64-19.2 76.8h-25.6c-25.6-12.8-25.6-38.4-25.6-76.8V320h-19.2v627.2zM499.2 172.8c-44.8 0-83.2-38.4-83.2-89.6S454.4 0 499.2 0s89.6 38.4 89.6 89.6-38.4 83.2-89.6 83.2z" p-id="1376" fill="#9762D1"/></g><g class="isotype-3" transform="translate(172, 392.5)" width="100" height="100"><path transform="scale(0.05)" d="M614.4 947.2c0 19.2 0 44.8-6.4 57.6-6.4 12.8-19.2 12.8-32 19.2h-19.2c-6.4 0-12.8 0-12.8-6.4-25.6-12.8-19.2-57.6-19.2-96V620.8h-19.2V998.4c-6.4 19.2-38.4 32-64 19.2-12.8-6.4-19.2-12.8-25.6-25.6V320h-12.8v313.6c0 19.2-19.2 38.4-51.2 32-38.4-6.4-32-76.8-32-121.6V345.6c0-70.4-6.4-121.6 44.8-140.8 25.6-12.8 64-12.8 96-12.8h108.8c25.6 0 57.6 0 76.8 6.4 19.2 6.4 38.4 19.2 44.8 32 19.2 25.6 12.8 115.2 12.8 166.4v192c0 38.4 0 64-19.2 76.8h-25.6c-25.6-12.8-25.6-38.4-25.6-76.8V320h-19.2v627.2zM499.2 172.8c-44.8 0-83.2-38.4-83.2-89.6S454.4 0 499.2 0s89.6 38.4 89.6 89.6-38.4 83.2-89.6 83.2z" p-id="1376" fill="#9762D1"/></g><g class="isotype-3" transform="translate(194, 392.5)" width="100" height="100"><path transform="scale(0.05)" d="M614.4 947.2c0 19.2 0 44.8-6.4 57.6-6.4 12.8-19.2 12.8-32 19.2h-19.2c-6.4 0-12.8 0-12.8-6.4-25.6-12.8-19.2-57.6-19.2-96V620.8h-19.2V998.4c-6.4 19.2-38.4 32-64 19.2-12.8-6.4-19.2-12.8-25.6-25.6V320h-12.8v313.6c0 19.2-19.2 38.4-51.2 32-38.4-6.4-32-76.8-32-121.6V345.6c0-70.4-6.4-121.6 44.8-140.8 25.6-12.8 64-12.8 96-12.8h108.8c25.6 0 57.6 0 76.8 6.4 19.2 6.4 38.4 19.2 44.8 32 19.2 25.6 12.8 115.2 12.8 166.4v192c0 38.4 0 64-19.2 76.8h-25.6c-25.6-12.8-25.6-38.4-25.6-76.8V320h-19.2v627.2zM499.2 172.8c-44.8 0-83.2-38.4-83.2-89.6S454.4 0 499.2 0s89.6 38.4 89.6 89.6-38.4 83.2-89.6 83.2z" p-id="1376" fill="#9762D1"/></g><g class="isotype-3" transform="translate(216, 392.5)" width="100" height="100"><path transform="scale(0.05)" d="M614.4 947.2c0 19.2 0 44.8-6.4 57.6-6.4 12.8-19.2 12.8-32 19.2h-19.2c-6.4 0-12.8 0-12.8-6.4-25.6-12.8-19.2-57.6-19.2-96V620.8h-19.2V998.4c-6.4 19.2-38.4 32-64 19.2-12.8-6.4-19.2-12.8-25.6-25.6V320h-12.8v313.6c0 19.2-19.2 38.4-51.2 32-38.4-6.4-32-76.8-32-121.6V345.6c0-70.4-6.4-121.6 44.8-140.8 25.6-12.8 64-12.8 96-12.8h108.8c25.6 0 57.6 0 76.8 6.4 19.2 6.4 38.4 19.2 44.8 32 19.2 25.6 12.8 115.2 12.8 166.4v192c0 38.4 0 64-19.2 76.8h-25.6c-25.6-12.8-25.6-38.4-25.6-76.8V320h-19.2v627.2zM499.2 172.8c-44.8 0-83.2-38.4-83.2-89.6S454.4 0 499.2 0s89.6 38.4 89.6 89.6-38.4 83.2-89.6 83.2z" p-id="1376" fill="#9762D1"/></g><g class="isotype-3" transform="translate(238, 392.5)" width="100" height="100"><path transform="scale(0.05)" d="M614.4 947.2c0 19.2 0 44.8-6.4 57.6-6.4 12.8-19.2 12.8-32 19.2h-19.2c-6.4 0-12.8 0-12.8-6.4-25.6-12.8-19.2-57.6-19.2-96V620.8h-19.2V998.4c-6.4 19.2-38.4 32-64 19.2-12.8-6.4-19.2-12.8-25.6-25.6V320h-12.8v313.6c0 19.2-19.2 38.4-51.2 32-38.4-6.4-32-76.8-32-121.6V345.6c0-70.4-6.4-121.6 44.8-140.8 25.6-12.8 64-12.8 96-12.8h108.8c25.6 0 57.6 0 76.8 6.4 19.2 6.4 38.4 19.2 44.8 32 19.2 25.6 12.8 115.2 12.8 166.4v192c0 38.4 0 64-19.2 76.8h-25.6c-25.6-12.8-25.6-38.4-25.6-76.8V320h-19.2v627.2zM499.2 172.8c-44.8 0-83.2-38.4-83.2-89.6S454.4 0 499.2 0s89.6 38.4 89.6 89.6-38.4 83.2-89.6 83.2z" p-id="1376" fill="#9762D1"/></g><g class="isotype-3" transform="translate(260, 392.5)" width="100" height="100"><path transform="scale(0.05)" d="M614.4 947.2c0 19.2 0 44.8-6.4 57.6-6.4 12.8-19.2 12.8-32 19.2h-19.2c-6.4 0-12.8 0-12.8-6.4-25.6-12.8-19.2-57.6-19.2-96V620.8h-19.2V998.4c-6.4 19.2-38.4 32-64 19.2-12.8-6.4-19.2-12.8-25.6-25.6V320h-12.8v313.6c0 19.2-19.2 38.4-51.2 32-38.4-6.4-32-76.8-32-121.6V345.6c0-70.4-6.4-121.6 44.8-140.8 25.6-12.8 64-12.8 96-12.8h108.8c25.6 0 57.6 0 76.8 6.4 19.2 6.4 38.4 19.2 44.8 32 19.2 25.6 12.8 115.2 12.8 166.4v192c0 38.4 0 64-19.2 76.8h-25.6c-25.6-12.8-25.6-38.4-25.6-76.8V320h-19.2v627.2zM499.2 172.8c-44.8 0-83.2-38.4-83.2-89.6S454.4 0 499.2 0s89.6 38.4 89.6 89.6-38.4 83.2-89.6 83.2z" p-id="1376" fill="#9762D1"/></g><g class="isotype-3" transform="translate(282, 392.5)" width="100" height="100"><path transform="scale(0.05)" d="M614.4 947.2c0 19.2 0 44.8-6.4 57.6-6.4 12.8-19.2 12.8-32 19.2h-19.2c-6.4 0-12.8 0-12.8-6.4-25.6-12.8-19.2-57.6-19.2-96V620.8h-19.2V998.4c-6.4 19.2-38.4 32-64 19.2-12.8-6.4-19.2-12.8-25.6-25.6V320h-12.8v313.6c0 19.2-19.2 38.4-51.2 32-38.4-6.4-32-76.8-32-121.6V345.6c0-70.4-6.4-121.6 44.8-140.8 25.6-12.8 64-12.8 96-12.8h108.8c25.6 0 57.6 0 76.8 6.4 19.2 6.4 38.4 19.2 44.8 32 19.2 25.6 12.8 115.2 12.8 166.4v192c0 38.4 0 64-19.2 76.8h-25.6c-25.6-12.8-25.6-38.4-25.6-76.8V320h-19.2v627.2zM499.2 172.8c-44.8 0-83.2-38.4-83.2-89.6S454.4 0 499.2 0s89.6 38.4 89.6 89.6-38.4 83.2-89.6 83.2z" p-id="1376" fill="#9762D1"/></g><g class="isotype-3" transform="translate(304, 392.5)" width="100" height="100"><path transform="scale(0.05)" d="M614.4 947.2c0 19.2 0 44.8-6.4 57.6-6.4 12.8-19.2 12.8-32 19.2h-19.2c-6.4 0-12.8 0-12.8-6.4-25.6-12.8-19.2-57.6-19.2-96V620.8h-19.2V998.4c-6.4 19.2-38.4 32-64 19.2-12.8-6.4-19.2-12.8-25.6-25.6V320h-12.8v313.6c0 19.2-19.2 38.4-51.2 32-38.4-6.4-32-76.8-32-121.6V345.6c0-70.4-6.4-121.6 44.8-140.8 25.6-12.8 64-12.8 96-12.8h108.8c25.6 0 57.6 0 76.8 6.4 19.2 6.4 38.4 19.2 44.8 32 19.2 25.6 12.8 115.2 12.8 166.4v192c0 38.4 0 64-19.2 76.8h-25.6c-25.6-12.8-25.6-38.4-25.6-76.8V320h-19.2v627.2zM499.2 172.8c-44.8 0-83.2-38.4-83.2-89.6S454.4 0 499.2 0s89.6 38.4 89.6 89.6-38.4 83.2-89.6 83.2z" p-id="1376" fill="#9762D1"/></g><g class="isotype-3" transform="translate(326, 392.5)" width="100" height="100"><path transform="scale(0.05)" d="M614.4 947.2c0 19.2 0 44.8-6.4 57.6-6.4 12.8-19.2 12.8-32 19.2h-19.2c-6.4 0-12.8 0-12.8-6.4-25.6-12.8-19.2-57.6-19.2-96V620.8h-19.2V998.4c-6.4 19.2-38.4 32-64 19.2-12.8-6.4-19.2-12.8-25.6-25.6V320h-12.8v313.6c0 19.2-19.2 38.4-51.2 32-38.4-6.4-32-76.8-32-121.6V345.6c0-70.4-6.4-121.6 44.8-140.8 25.6-12.8 64-12.8 96-12.8h108.8c25.6 0 57.6 0 76.8 6.4 19.2 6.4 38.4 19.2 44.8 32 19.2 25.6 12.8 115.2 12.8 166.4v192c0 38.4 0 64-19.2 76.8h-25.6c-25.6-12.8-25.6-38.4-25.6-76.8V320h-19.2v627.2zM499.2 172.8c-44.8 0-83.2-38.4-83.2-89.6S454.4 0 499.2 0s89.6 38.4 89.6 89.6-38.4 83.2-89.6 83.2z" p-id="1376" fill="#9762D1"/></g><g class="isotype-3" transform="translate(348, 392.5)" width="100" height="100"><path transform="scale(0.05)" d="M614.4 947.2c0 19.2 0 44.8-6.4 57.6-6.4 12.8-19.2 12.8-32 19.2h-19.2c-6.4 0-12.8 0-12.8-6.4-25.6-12.8-19.2-57.6-19.2-96V620.8h-19.2V998.4c-6.4 19.2-38.4 32-64 19.2-12.8-6.4-19.2-12.8-25.6-25.6V320h-12.8v313.6c0 19.2-19.2 38.4-51.2 32-38.4-6.4-32-76.8-32-121.6V345.6c0-70.4-6.4-121.6 44.8-140.8 25.6-12.8 64-12.8 96-12.8h108.8c25.6 0 57.6 0 76.8 6.4 19.2 6.4 38.4 19.2 44.8 32 19.2 25.6 12.8 115.2 12.8 166.4v192c0 38.4 0 64-19.2 76.8h-25.6c-25.6-12.8-25.6-38.4-25.6-76.8V320h-19.2v627.2zM499.2 172.8c-44.8 0-83.2-38.4-83.2-89.6S454.4 0 499.2 0s89.6 38.4 89.6 89.6-38.4 83.2-89.6 83.2z" p-id="1376" fill="#9762D1"/></g><g class="isotype-3" transform="translate(370, 392.5)" width="100" height="100"><path transform="scale(0.05)" d="M614.4 947.2c0 19.2 0 44.8-6.4 57.6-6.4 12.8-19.2 12.8-32 19.2h-19.2c-6.4 0-12.8 0-12.8-6.4-25.6-12.8-19.2-57.6-19.2-96V620.8h-19.2V998.4c-6.4 19.2-38.4 32-64 19.2-12.8-6.4-19.2-12.8-25.6-25.6V320h-12.8v313.6c0 19.2-19.2 38.4-51.2 32-38.4-6.4-32-76.8-32-121.6V345.6c0-70.4-6.4-121.6 44.8-140.8 25.6-12.8 64-12.8 96-12.8h108.8c25.6 0 57.6 0 76.8 6.4 19.2 6.4 38.4 19.2 44.8 32 19.2 25.6 12.8 115.2 12.8 166.4v192c0 38.4 0 64-19.2 76.8h-25.6c-25.6-12.8-25.6-38.4-25.6-76.8V320h-19.2v627.2zM499.2 172.8c-44.8 0-83.2-38.4-83.2-89.6S454.4 0 499.2 0s89.6 38.4 89.6 89.6-38.4 83.2-89.6 83.2z" p-id="1376" fill="#9762D1"/></g><g class="isotype-3" transform="translate(392, 392.5)" width="100" height="100"><path transform="scale(0.05)" d="M614.4 947.2c0 19.2 0 44.8-6.4 57.6-6.4 12.8-19.2 12.8-32 19.2h-19.2c-6.4 0-12.8 0-12.8-6.4-25.6-12.8-19.2-57.6-19.2-96V620.8h-19.2V998.4c-6.4 19.2-38.4 32-64 19.2-12.8-6.4-19.2-12.8-25.6-25.6V320h-12.8v313.6c0 19.2-19.2 38.4-51.2 32-38.4-6.4-32-76.8-32-121.6V345.6c0-70.4-6.4-121.6 44.8-140.8 25.6-12.8 64-12.8 96-12.8h108.8c25.6 0 57.6 0 76.8 6.4 19.2 6.4 38.4 19.2 44.8 32 19.2 25.6 12.8 115.2 12.8 166.4v192c0 38.4 0 64-19.2 76.8h-25.6c-25.6-12.8-25.6-38.4-25.6-76.8V320h-19.2v627.2zM499.2 172.8c-44.8 0-83.2-38.4-83.2-89.6S454.4 0 499.2 0s89.6 38.4 89.6 89.6-38.4 83.2-89.6 83.2z" p-id="1376" fill="#9762D1"/></g><g class="isotype-3" transform="translate(414, 392.5)" width="100" height="100"><path transform="scale(0.05)" d="M614.4 947.2c0 19.2 0 44.8-6.4 57.6-6.4 12.8-19.2 12.8-32 19.2h-19.2c-6.4 0-12.8 0-12.8-6.4-25.6-12.8-19.2-57.6-19.2-96V620.8h-19.2V998.4c-6.4 19.2-38.4 32-64 19.2-12.8-6.4-19.2-12.8-25.6-25.6V320h-12.8v313.6c0 19.2-19.2 38.4-51.2 32-38.4-6.4-32-76.8-32-121.6V345.6c0-70.4-6.4-121.6 44.8-140.8 25.6-12.8 64-12.8 96-12.8h108.8c25.6 0 57.6 0 76.8 6.4 19.2 6.4 38.4 19.2 44.8 32 19.2 25.6 12.8 115.2 12.8 166.4v192c0 38.4 0 64-19.2 76.8h-25.6c-25.6-12.8-25.6-38.4-25.6-76.8V320h-19.2v627.2zM499.2 172.8c-44.8 0-83.2-38.4-83.2-89.6S454.4 0 499.2 0s89.6 38.4 89.6 89.6-38.4 83.2-89.6 83.2z" p-id="1376" fill="#9762D1"/></g><g class="isotype-3" transform="translate(436, 392.5)" width="100" height="100"><path transform="scale(0.05)" d="M614.4 947.2c0 19.2 0 44.8-6.4 57.6-6.4 12.8-19.2 12.8-32 19.2h-19.2c-6.4 0-12.8 0-12.8-6.4-25.6-12.8-19.2-57.6-19.2-96V620.8h-19.2V998.4c-6.4 19.2-38.4 32-64 19.2-12.8-6.4-19.2-12.8-25.6-25.6V320h-12.8v313.6c0 19.2-19.2 38.4-51.2 32-38.4-6.4-32-76.8-32-121.6V345.6c0-70.4-6.4-121.6 44.8-140.8 25.6-12.8 64-12.8 96-12.8h108.8c25.6 0 57.6 0 76.8 6.4 19.2 6.4 38.4 19.2 44.8 32 19.2 25.6 12.8 115.2 12.8 166.4v192c0 38.4 0 64-19.2 76.8h-25.6c-25.6-12.8-25.6-38.4-25.6-76.8V320h-19.2v627.2zM499.2 172.8c-44.8 0-83.2-38.4-83.2-89.6S454.4 0 499.2 0s89.6 38.4 89.6 89.6-38.4 83.2-89.6 83.2z" p-id="1376" fill="#9762D1"/></g><g class="isotype-3" transform="translate(458, 392.5)" width="100" height="100"><path transform="scale(0.05)" d="M614.4 947.2c0 19.2 0 44.8-6.4 57.6-6.4 12.8-19.2 12.8-32 19.2h-19.2c-6.4 0-12.8 0-12.8-6.4-25.6-12.8-19.2-57.6-19.2-96V620.8h-19.2V998.4c-6.4 19.2-38.4 32-64 19.2-12.8-6.4-19.2-12.8-25.6-25.6V320h-12.8v313.6c0 19.2-19.2 38.4-51.2 32-38.4-6.4-32-76.8-32-121.6V345.6c0-70.4-6.4-121.6 44.8-140.8 25.6-12.8 64-12.8 96-12.8h108.8c25.6 0 57.6 0 76.8 6.4 19.2 6.4 38.4 19.2 44.8 32 19.2 25.6 12.8 115.2 12.8 166.4v192c0 38.4 0 64-19.2 76.8h-25.6c-25.6-12.8-25.6-38.4-25.6-76.8V320h-19.2v627.2zM499.2 172.8c-44.8 0-83.2-38.4-83.2-89.6S454.4 0 499.2 0s89.6 38.4 89.6 89.6-38.4 83.2-89.6 83.2z" p-id="1376" fill="#9762D1"/></g><g class="isotype-3" transform="translate(480, 392.5)" width="100" height="100"><path transform="scale(0.05)" d="M614.4 947.2c0 19.2 0 44.8-6.4 57.6-6.4 12.8-19.2 12.8-32 19.2h-19.2c-6.4 0-12.8 0-12.8-6.4-25.6-12.8-19.2-57.6-19.2-96V620.8h-19.2V998.4c-6.4 19.2-38.4 32-64 19.2-12.8-6.4-19.2-12.8-25.6-25.6V320h-12.8v313.6c0 19.2-19.2 38.4-51.2 32-38.4-6.4-32-76.8-32-121.6V345.6c0-70.4-6.4-121.6 44.8-140.8 25.6-12.8 64-12.8 96-12.8h108.8c25.6 0 57.6 0 76.8 6.4 19.2 6.4 38.4 19.2 44.8 32 19.2 25.6 12.8 115.2 12.8 166.4v192c0 38.4 0 64-19.2 76.8h-25.6c-25.6-12.8-25.6-38.4-25.6-76.8V320h-19.2v627.2zM499.2 172.8c-44.8 0-83.2-38.4-83.2-89.6S454.4 0 499.2 0s89.6 38.4 89.6 89.6-38.4 83.2-89.6 83.2z" p-id="1376" fill="#9762D1"/></g><g class="isotype-3" transform="translate(502, 392.5)" width="100" height="100"><path transform="scale(0.05)" d="M614.4 947.2c0 19.2 0 44.8-6.4 57.6-6.4 12.8-19.2 12.8-32 19.2h-19.2c-6.4 0-12.8 0-12.8-6.4-25.6-12.8-19.2-57.6-19.2-96V620.8h-19.2V998.4c-6.4 19.2-38.4 32-64 19.2-12.8-6.4-19.2-12.8-25.6-25.6V320h-12.8v313.6c0 19.2-19.2 38.4-51.2 32-38.4-6.4-32-76.8-32-121.6V345.6c0-70.4-6.4-121.6 44.8-140.8 25.6-12.8 64-12.8 96-12.8h108.8c25.6 0 57.6 0 76.8 6.4 19.2 6.4 38.4 19.2 44.8 32 19.2 25.6 12.8 115.2 12.8 166.4v192c0 38.4 0 64-19.2 76.8h-25.6c-25.6-12.8-25.6-38.4-25.6-76.8V320h-19.2v627.2zM499.2 172.8c-44.8 0-83.2-38.4-83.2-89.6S454.4 0 499.2 0s89.6 38.4 89.6 89.6-38.4 83.2-89.6 83.2z" p-id="1376" fill="#9762D1"/></g><g class="isotype-3" transform="translate(524, 392.5)" width="100" height="100"><path transform="scale(0.05)" d="M614.4 947.2c0 19.2 0 44.8-6.4 57.6-6.4 12.8-19.2 12.8-32 19.2h-19.2c-6.4 0-12.8 0-12.8-6.4-25.6-12.8-19.2-57.6-19.2-96V620.8h-19.2V998.4c-6.4 19.2-38.4 32-64 19.2-12.8-6.4-19.2-12.8-25.6-25.6V320h-12.8v313.6c0 19.2-19.2 38.4-51.2 32-38.4-6.4-32-76.8-32-121.6V345.6c0-70.4-6.4-121.6 44.8-140.8 25.6-12.8 64-12.8 96-12.8h108.8c25.6 0 57.6 0 76.8 6.4 19.2 6.4 38.4 19.2 44.8 32 19.2 25.6 12.8 115.2 12.8 166.4v192c0 38.4 0 64-19.2 76.8h-25.6c-25.6-12.8-25.6-38.4-25.6-76.8V320h-19.2v627.2zM499.2 172.8c-44.8 0-83.2-38.4-83.2-89.6S454.4 0 499.2 0s89.6 38.4 89.6 89.6-38.4 83.2-89.6 83.2z" p-id="1376" fill="#9762D1"/></g><g class="isotype-3" transform="translate(546, 392.5)" width="100" height="100"><path transform="scale(0.05)" d="M614.4 947.2c0 19.2 0 44.8-6.4 57.6-6.4 12.8-19.2 12.8-32 19.2h-19.2c-6.4 0-12.8 0-12.8-6.4-25.6-12.8-19.2-57.6-19.2-96V620.8h-19.2V998.4c-6.4 19.2-38.4 32-64 19.2-12.8-6.4-19.2-12.8-25.6-25.6V320h-12.8v313.6c0 19.2-19.2 38.4-51.2 32-38.4-6.4-32-76.8-32-121.6V345.6c0-70.4-6.4-121.6 44.8-140.8 25.6-12.8 64-12.8 96-12.8h108.8c25.6 0 57.6 0 76.8 6.4 19.2 6.4 38.4 19.2 44.8 32 19.2 25.6 12.8 115.2 12.8 166.4v192c0 38.4 0 64-19.2 76.8h-25.6c-25.6-12.8-25.6-38.4-25.6-76.8V320h-19.2v627.2zM499.2 172.8c-44.8 0-83.2-38.4-83.2-89.6S454.4 0 499.2 0s89.6 38.4 89.6 89.6-38.4 83.2-89.6 83.2z" p-id="1376" fill="#9C9C9C"/></g><g class="isotype-3" transform="translate(568, 392.5)" width="100" height="100"><path transform="scale(0.05)" d="M614.4 947.2c0 19.2 0 44.8-6.4 57.6-6.4 12.8-19.2 12.8-32 19.2h-19.2c-6.4 0-12.8 0-12.8-6.4-25.6-12.8-19.2-57.6-19.2-96V620.8h-19.2V998.4c-6.4 19.2-38.4 32-64 19.2-12.8-6.4-19.2-12.8-25.6-25.6V320h-12.8v313.6c0 19.2-19.2 38.4-51.2 32-38.4-6.4-32-76.8-32-121.6V345.6c0-70.4-6.4-121.6 44.8-140.8 25.6-12.8 64-12.8 96-12.8h108.8c25.6 0 57.6 0 76.8 6.4 19.2 6.4 38.4 19.2 44.8 32 19.2 25.6 12.8 115.2 12.8 166.4v192c0 38.4 0 64-19.2 76.8h-25.6c-25.6-12.8-25.6-38.4-25.6-76.8V320h-19.2v627.2zM499.2 172.8c-44.8 0-83.2-38.4-83.2-89.6S454.4 0 499.2 0s89.6 38.4 89.6 89.6-38.4 83.2-89.6 83.2z" p-id="1376" fill="#9C9C9C"/></g><g class="isotype-3" transform="translate(590, 392.5)" width="100" height="100"><path transform="scale(0.05)" d="M614.4 947.2c0 19.2 0 44.8-6.4 57.6-6.4 12.8-19.2 12.8-32 19.2h-19.2c-6.4 0-12.8 0-12.8-6.4-25.6-12.8-19.2-57.6-19.2-96V620.8h-19.2V998.4c-6.4 19.2-38.4 32-64 19.2-12.8-6.4-19.2-12.8-25.6-25.6V320h-12.8v313.6c0 19.2-19.2 38.4-51.2 32-38.4-6.4-32-76.8-32-121.6V345.6c0-70.4-6.4-121.6 44.8-140.8 25.6-12.8 64-12.8 96-12.8h108.8c25.6 0 57.6 0 76.8 6.4 19.2 6.4 38.4 19.2 44.8 32 19.2 25.6 12.8 115.2 12.8 166.4v192c0 38.4 0 64-19.2 76.8h-25.6c-25.6-12.8-25.6-38.4-25.6-76.8V320h-19.2v627.2zM499.2 172.8c-44.8 0-83.2-38.4-83.2-89.6S454.4 0 499.2 0s89.6 38.4 89.6 89.6-38.4 83.2-89.6 83.2z" p-id="1376" fill="#9C9C9C"/></g><g class="isotype-3" transform="translate(612, 392.5)" width="100" height="100"><path transform="scale(0.05)" d="M614.4 947.2c0 19.2 0 44.8-6.4 57.6-6.4 12.8-19.2 12.8-32 19.2h-19.2c-6.4 0-12.8 0-12.8-6.4-25.6-12.8-19.2-57.6-19.2-96V620.8h-19.2V998.4c-6.4 19.2-38.4 32-64 19.2-12.8-6.4-19.2-12.8-25.6-25.6V320h-12.8v313.6c0 19.2-19.2 38.4-51.2 32-38.4-6.4-32-76.8-32-121.6V345.6c0-70.4-6.4-121.6 44.8-140.8 25.6-12.8 64-12.8 96-12.8h108.8c25.6 0 57.6 0 76.8 6.4 19.2 6.4 38.4 19.2 44.8 32 19.2 25.6 12.8 115.2 12.8 166.4v192c0 38.4 0 64-19.2 76.8h-25.6c-25.6-12.8-25.6-38.4-25.6-76.8V320h-19.2v627.2zM499.2 172.8c-44.8 0-83.2-38.4-83.2-89.6S454.4 0 499.2 0s89.6 38.4 89.6 89.6-38.4 83.2-89.6 83.2z" p-id="1376" fill="#9C9C9C"/></g></svg>